<svg width="27" height="27" viewBox="0 0 27 27" fill="none" xmlns="http://www.w3.org/2000/svg">
<g clip-path="url(#clip0_15_2317)">
<path d="M13.8074 9.25854H4.05824C3.8479 9.25854 3.67743 9.42907 3.67743 9.63935C3.67743 9.84969 3.8479 10.0202 4.05824 10.0202H13.8075C14.0178 10.0202 14.1883 9.84964 14.1883 9.63935C14.1883 9.42907 14.0178 9.25854 13.8074 9.25854Z" fill="white"/>
<path d="M13.8074 11.9346H4.05824C3.8479 11.9346 3.67743 12.1051 3.67743 12.3154C3.67743 12.5257 3.8479 12.6962 4.05824 12.6962H13.8075C14.0178 12.6962 14.1883 12.5257 14.1883 12.3154C14.1883 12.1051 14.0178 11.9346 13.8074 11.9346Z" fill="white"/>
<path d="M13.8074 14.6105H4.05824C3.8479 14.6105 3.67743 14.781 3.67743 14.9913C3.67743 15.2016 3.8479 15.3721 4.05824 15.3721H13.8075C14.0178 15.3721 14.1883 15.2016 14.1883 14.9913C14.1883 14.781 14.0178 14.6105 13.8074 14.6105Z" fill="white"/>
<path d="M14.1883 17.6673C14.1883 17.457 14.0178 17.2865 13.8075 17.2865H4.05824C3.8479 17.2865 3.67743 17.457 3.67743 17.6673C3.67743 17.8776 3.8479 18.0481 4.05824 18.0481H13.8075C14.0178 18.0481 14.1883 17.8776 14.1883 17.6673Z" fill="white"/>
<path d="M4.05824 21.2083C3.8479 21.2083 3.67743 21.3788 3.67743 21.5891C3.67743 21.7993 3.8479 21.9699 4.05824 21.9699H8.94532C9.15566 21.9699 9.32613 21.7993 9.32613 21.5891C9.32613 21.3788 9.15566 21.2083 8.94532 21.2083H4.05824Z" fill="white"/>
<path d="M18.196 4.75668V3.52097C18.196 3.05023 17.8131 2.66724 17.3423 2.66724H9.52364C9.05289 2.66724 8.66995 3.05023 8.66995 3.52097V4.75668C8.66995 5.22742 9.05289 5.61037 9.52364 5.61037H10.1839C10.3942 5.61037 10.5647 5.43984 10.5647 5.22956C10.5647 5.01922 10.3942 4.84875 10.1839 4.84875H9.52364C9.4729 4.84875 9.43162 4.80746 9.43162 4.75673V3.52097C9.43162 3.47024 9.4729 3.4289 9.52364 3.4289H17.3423C17.3931 3.4289 17.4343 3.47019 17.4343 3.52097V4.75668C17.4343 4.80741 17.3931 4.8487 17.3423 4.8487H11.9643C11.7539 4.8487 11.5835 5.01922 11.5835 5.22951C11.5835 5.43984 11.7539 5.61031 11.9643 5.61031H17.3423C17.8131 5.61042 18.196 5.22742 18.196 4.75668Z" fill="white"/>
<path d="M21.0435 23.2636C20.8332 23.2636 20.6627 23.4341 20.6627 23.6444V24.1572C20.6627 24.7762 20.1591 25.2798 19.54 25.2798H2.69274C2.07377 25.2798 1.57012 24.7762 1.57012 24.1572V5.8523C1.57012 5.76988 1.57977 5.68904 1.59698 5.61038H5.06448C5.78842 5.61038 6.37738 5.02142 6.37738 4.29748V0.830035C6.45604 0.81282 6.53683 0.803172 6.61925 0.803172H19.54C20.159 0.803172 20.6627 1.30677 20.6627 1.92579V6.99589C20.6627 7.20623 20.8331 7.3767 21.0435 7.3767C21.2538 7.3767 21.4243 7.20618 21.4243 6.99589V1.92574C21.4243 0.886809 20.579 0.0415039 19.54 0.0415039H6.6193C6.11601 0.0415039 5.64278 0.23752 5.2869 0.593395L1.36034 4.51995C1.00447 4.87583 0.808502 5.34901 0.808502 5.85235V24.1573C0.808502 25.1962 1.65376 26.0415 2.69274 26.0415H19.54C20.579 26.0415 21.4243 25.1962 21.4243 24.1573V23.6444C21.4243 23.4341 21.2538 23.2636 21.0435 23.2636ZM5.61576 1.34171V4.29748C5.61576 4.60146 5.36846 4.84876 5.06448 4.84876H2.10871L5.61576 1.34171Z" fill="white"/>
<path d="M26.2595 13.6508C26.5268 13.2585 26.5959 12.7745 26.4492 12.3229C26.3025 11.8714 25.962 11.5205 25.5152 11.3602C25.2187 11.2539 25.0209 10.9817 25.0115 10.6668C24.9971 10.1923 24.7685 9.76003 24.3844 9.48094C24.0003 9.20189 23.5185 9.11816 23.0629 9.2511C22.7603 9.33936 22.4406 9.23536 22.2478 8.98628C21.9573 8.61075 21.5183 8.39539 21.0435 8.39539C20.5688 8.39539 20.1298 8.61075 19.8392 8.98628C19.6464 9.23541 19.3265 9.33926 19.0242 9.2511C18.5685 9.11805 18.0867 9.20189 17.7026 9.48094C17.3185 9.76003 17.09 10.1922 17.0756 10.6668C17.0661 10.9816 16.8683 11.2538 16.5718 11.3601C16.1249 11.5204 15.7845 11.8714 15.6378 12.3229C15.4911 12.7744 15.5603 13.2585 15.8276 13.6508C16.0049 13.9111 16.0049 14.2475 15.8276 14.5078C15.5603 14.9002 15.4911 15.3842 15.6378 15.8358C15.7845 16.2873 16.1249 16.6382 16.5718 16.7985C16.8683 16.9049 17.0661 17.177 17.0756 17.4919C17.0888 17.9284 17.2889 18.3386 17.6245 18.6171C17.846 18.8009 18.112 18.9159 18.3905 18.9544V22.4216C18.3905 22.7142 18.5491 22.9846 18.8045 23.1272C19.0596 23.2698 19.3732 23.2634 19.6225 23.1099L21.0192 22.2501C21.0419 22.236 21.0555 22.2424 21.068 22.2501L22.4647 23.1099C22.7139 23.2633 23.0273 23.2699 23.2827 23.1272C23.5381 22.9845 23.6967 22.7141 23.6967 22.4216V18.9543C23.9751 18.9159 24.2411 18.8009 24.4626 18.6171C24.7983 18.3386 24.9984 17.9284 25.0116 17.4918C25.0211 17.177 25.2189 16.9048 25.5153 16.7985C25.9622 16.6382 26.3027 16.2872 26.4494 15.8357C26.5961 15.3842 26.5269 14.9002 26.2596 14.5078C26.0821 14.2476 26.0821 13.9112 26.2595 13.6508ZM22.8639 22.4613L21.4672 21.6015C21.2075 21.4417 20.8797 21.4414 20.6198 21.6015L19.2231 22.4613C19.1913 22.4806 19.1521 22.4583 19.1521 22.4216V18.8821C19.4139 18.8518 19.6735 18.9583 19.8392 19.1724C20.1298 19.5479 20.5688 19.7633 21.0436 19.7633C21.5183 19.7633 21.9573 19.5479 22.2478 19.1724C22.4135 18.9582 22.6732 18.8518 22.935 18.8821V22.4216C22.935 22.4586 22.8952 22.4807 22.8639 22.4613ZM25.63 14.9368C25.7637 15.1329 25.7982 15.3748 25.7249 15.6004C25.6516 15.8261 25.4814 16.0015 25.258 16.0816C24.6648 16.2944 24.2692 16.8389 24.2502 17.4689C24.2434 17.6903 24.1461 17.89 23.9761 18.031C23.785 18.1896 23.5262 18.2494 23.2763 18.1765C22.6713 18 22.0311 18.208 21.6454 18.7064C21.5002 18.894 21.2808 19.0017 21.0435 19.0017C20.8062 19.0017 20.5868 18.8941 20.4415 18.7064C20.147 18.3257 19.7042 18.1145 19.2419 18.1145C19.0988 18.1145 18.9538 18.1347 18.8108 18.1765C18.5584 18.25 18.3004 18.1883 18.1108 18.031C17.9408 17.8899 17.8435 17.6903 17.8368 17.4689C17.8177 16.8389 17.4222 16.2944 16.8289 16.0816C16.6055 16.0015 16.4354 15.8261 16.362 15.6004C16.2887 15.3748 16.3232 15.1328 16.4569 14.9367C16.8117 14.4159 16.8117 13.7429 16.4569 13.222C16.3232 13.0259 16.2887 12.784 16.362 12.5582C16.4354 12.3326 16.6055 12.1572 16.8289 12.0771C17.4222 11.8643 17.8177 11.3197 17.8368 10.6898C17.844 10.4526 17.9582 10.2366 18.1502 10.0971C18.3421 9.95762 18.5828 9.91578 18.8107 9.9822C19.4155 10.1588 20.0559 9.95071 20.4415 9.45235C20.5867 9.26466 20.8061 9.157 21.0435 9.157C21.2808 9.157 21.5001 9.26461 21.6454 9.4523C22.0311 9.95071 22.6711 10.1587 23.2762 9.9822C23.504 9.91567 23.7447 9.95757 23.9367 10.0971C24.1287 10.2365 24.243 10.4526 24.2501 10.6897C24.2692 11.3197 24.6648 11.8643 25.258 12.077C25.4814 12.1571 25.6515 12.3325 25.7249 12.5582C25.7982 12.7839 25.7637 13.0258 25.63 13.2219C25.2751 13.7428 25.2751 14.4159 25.63 14.9368Z" fill="white"/>
<path d="M21.0435 10.8876C19.2835 10.8876 17.8517 12.3194 17.8517 14.0794C17.8517 15.8394 19.2835 17.2712 21.0435 17.2712C22.8034 17.2712 24.2353 15.8394 24.2353 14.0794C24.2353 12.3194 22.8034 10.8876 21.0435 10.8876ZM21.0435 16.5096C19.7035 16.5096 18.6133 15.4194 18.6133 14.0794C18.6133 12.7395 19.7035 11.6492 21.0435 11.6492C22.3835 11.6492 23.4737 12.7394 23.4737 14.0794C23.4737 15.4194 22.3835 16.5096 21.0435 16.5096Z" fill="white"/>
</g>
<defs>
<clipPath id="clip0_15_2317">
<rect width="26" height="26" fill="white" transform="translate(0.666626 0.0415039)"/>
</clipPath>
</defs>
</svg>
