<svg width="27" height="27" viewBox="0 0 27 27" fill="none" xmlns="http://www.w3.org/2000/svg">
<g clip-path="url(#clip0_15_2279)">
<path d="M23.9027 4.25675H22.1221C21.9212 4.25675 21.7558 4.4222 21.7558 4.62311C21.7558 4.82402 21.9212 4.98947 22.1221 4.98947H23.9027C24.3046 4.98947 24.6355 5.31644 24.6355 5.7222V18.9822H2.03122V5.71826C2.03122 5.31644 2.35819 4.98554 2.76394 4.98554H4.54455C4.74546 4.98554 4.91091 4.82008 4.91091 4.61917C4.91091 4.41826 4.74546 4.25281 4.54455 4.25281H2.76394C1.95637 4.25281 1.30243 4.91069 1.30243 5.71432V20.7274C1.30243 21.5349 1.96031 22.1889 2.76394 22.1889H10.0518V24.3713H7.98758C7.78667 24.3713 7.62122 24.5367 7.62122 24.7377C7.62122 24.9386 7.78667 25.104 7.98758 25.104H18.683C18.8839 25.104 19.0494 24.9386 19.0494 24.7377C19.0494 24.5367 18.8839 24.3713 18.683 24.3713H16.6188V22.1889H23.9067C24.7142 22.1889 25.3682 21.531 25.3682 20.7274V5.71826C25.3682 4.91069 24.7103 4.25675 23.9027 4.25675ZM15.8861 24.3752H10.7806V22.1928H15.8861V24.3752ZM23.9027 21.4601H2.76394C2.36213 21.4601 2.03122 21.1331 2.03122 20.7274V19.707H24.6355V20.7274C24.6355 21.1331 24.3085 21.4601 23.9027 21.4601Z" fill="white"/>
<path d="M6.06516 12.2497C8.65729 11.8322 11.0327 12.3837 13.1167 13.8846C13.1246 13.8885 13.1324 13.8925 13.1364 13.8964C13.1443 13.9003 13.1521 13.9082 13.164 13.9161C13.1718 13.92 13.1758 13.9161 13.1836 13.92C13.2309 13.9397 13.2782 13.9555 13.3294 13.9555C13.3806 13.9555 13.4279 13.9397 13.4752 13.92C13.483 13.9161 13.487 13.92 13.4949 13.9161C13.5027 13.9122 13.5106 13.9043 13.5224 13.8964C13.5303 13.8925 13.5382 13.8925 13.5421 13.8846C15.63 12.3797 18.0015 11.8322 20.5936 12.2497C20.7 12.2655 20.8064 12.2379 20.8891 12.167C20.9718 12.0961 21.0191 11.9976 21.0191 11.8873V1.5661C21.0191 1.38882 20.893 1.23913 20.7197 1.20761C17.643 0.620641 15.1612 1.15246 13.3333 2.77155C11.5055 1.15246 9.01971 0.62458 5.9391 1.20761C5.76577 1.23913 5.63971 1.39276 5.63971 1.5661V11.8912C5.63971 11.9976 5.68698 12.1 5.76971 12.1709C5.85244 12.2379 5.9588 12.2655 6.06516 12.2497ZM20.2943 1.86943V11.4658C17.903 11.1703 15.6891 11.6509 13.6997 12.8997V3.42155C15.3227 1.90882 17.4855 1.40064 20.2943 1.86943ZM6.37244 1.86943C9.18122 1.3967 11.344 1.90488 12.967 3.42155V12.9037C11.3597 11.8912 9.60274 11.3831 7.72365 11.3831C7.2785 11.3831 6.82941 11.4106 6.37244 11.4697V1.86943Z" fill="white"/>
<path d="M7.69606 4.10309H7.70788C9.23243 4.10309 10.5797 4.44188 11.7024 5.10763C11.7615 5.14309 11.8245 5.15885 11.8876 5.15885C12.0136 5.15885 12.1358 5.09582 12.2027 4.97763C12.3052 4.8043 12.25 4.57976 12.0727 4.47733C10.8318 3.74066 9.36243 3.37036 7.70394 3.37036C7.49909 3.37036 7.32576 3.53188 7.32576 3.73673C7.33364 3.93763 7.49515 4.10309 7.69606 4.10309Z" fill="white"/>
<path d="M7.69606 6.81732H7.70788C9.23242 6.81732 10.5797 7.15611 11.7064 7.82187C11.7655 7.85732 11.8285 7.87308 11.8915 7.87308C12.0176 7.87308 12.1397 7.81005 12.2067 7.69187C12.3091 7.51853 12.2539 7.29399 12.0767 7.19156C10.8358 6.4549 9.36636 6.08459 7.70788 6.08459C7.50303 6.08459 7.3297 6.24611 7.3297 6.45096C7.33364 6.65187 7.49515 6.81732 7.69606 6.81732Z" fill="white"/>
<path d="M11.8915 10.5873C12.0176 10.5873 12.1397 10.5243 12.2067 10.4061C12.3091 10.2328 12.2539 10.0082 12.0767 9.9058C10.8358 9.16913 9.36636 8.79883 7.70788 8.79883C7.48333 8.79883 7.3297 8.96034 7.3297 9.16519C7.3297 9.3661 7.49515 9.53156 7.69606 9.53156H7.70788C9.23242 9.53156 10.5797 9.87034 11.7064 10.5361C11.7655 10.5716 11.8285 10.5873 11.8915 10.5873Z" fill="white"/>
<path d="M14.7752 5.15879C14.8382 5.15879 14.9012 5.14303 14.9603 5.10758C16.1224 4.41818 17.5209 4.07939 19.1006 4.10303H19.1046C19.3055 4.10303 19.467 3.94152 19.4709 3.74061C19.4749 3.5397 19.3133 3.37424 19.1085 3.3703C17.3752 3.34273 15.8624 3.72091 14.5861 4.47727C14.4127 4.5797 14.3536 4.80424 14.4561 4.97758C14.527 5.09576 14.6491 5.15879 14.7752 5.15879Z" fill="white"/>
<path d="M14.7752 7.87302C14.8382 7.87302 14.9012 7.85726 14.9603 7.82181C16.1224 7.13242 17.5091 6.79363 19.1006 6.81726H19.1046C19.3055 6.81726 19.467 6.65575 19.4709 6.45484C19.4749 6.25393 19.3133 6.08848 19.1085 6.08454C17.3752 6.05696 15.8624 6.43514 14.5861 7.19151C14.4127 7.29393 14.3536 7.51848 14.4561 7.69181C14.527 7.80999 14.6491 7.87302 14.7752 7.87302Z" fill="white"/>
<path d="M19.1124 8.8028C17.3791 8.77522 15.8664 9.1534 14.59 9.90977C14.4167 10.0122 14.3576 10.2367 14.46 10.4101C14.527 10.5243 14.6491 10.5913 14.7752 10.5913C14.8382 10.5913 14.9012 10.5755 14.9603 10.5401C16.1224 9.85068 17.5209 9.51189 19.1006 9.53553H19.1046C19.3055 9.53553 19.467 9.37401 19.4709 9.1731C19.4749 8.96825 19.3133 8.8028 19.1124 8.8028Z" fill="white"/>
<path d="M9.54364 16.9691C9.74455 16.9691 9.91 16.8037 9.91 16.6028V16.2679H22.9849C23.1858 16.2679 23.3512 16.1025 23.3512 15.9016C23.3512 15.7007 23.1858 15.5352 22.9849 15.5352H9.90606V15.2003C9.90606 14.9994 9.74061 14.834 9.5397 14.834C9.33879 14.834 9.17334 14.9994 9.17334 15.2003V15.5352H7.34546C7.14455 15.5352 6.9791 15.7007 6.9791 15.9016C6.9791 16.1025 7.14455 16.2679 7.34546 16.2679H9.17334V16.6028C9.17728 16.8037 9.33879 16.9691 9.54364 16.9691Z" fill="white"/>
<path d="M5.92728 15.4525L4.24122 14.1406C4.06788 14.0067 3.8394 13.9791 3.63849 14.0776C3.44152 14.1761 3.3194 14.3731 3.3194 14.5897V17.2173C3.3194 17.4379 3.44152 17.6349 3.63849 17.7294C3.71728 17.7688 3.80394 17.7885 3.89061 17.7885C4.01667 17.7885 4.13879 17.7491 4.24122 17.6664L5.92728 16.3546C6.06515 16.2443 6.14788 16.0828 6.14788 15.9055C6.14788 15.7282 6.06515 15.5588 5.92728 15.4525ZM4.04819 16.8903V14.9167L5.31273 15.9016L4.04819 16.8903Z" fill="white"/>
</g>
<defs>
<clipPath id="clip0_15_2279">
<rect width="26" height="26" fill="white" transform="translate(0.333344 0.0415039)"/>
</clipPath>
</defs>
</svg>
