<svg width="26" height="27" viewBox="0 0 26 27" fill="none" xmlns="http://www.w3.org/2000/svg">
<g clip-path="url(#clip0_15_2272)">
<path fill-rule="evenodd" clip-rule="evenodd" d="M12.4719 15.5459L12.3928 15.467L9.93689 13.0105H8.34592C6.73413 13.0105 5.42295 14.3217 5.42295 15.9335V20.3545H20.5786V15.9335C20.5786 14.3217 19.2674 13.0105 17.6551 13.0105L15.4974 13.0105L12.9685 15.54C12.8319 15.6766 12.611 15.6785 12.4719 15.5459ZM8.07068 7.41148C8.07061 7.37246 8.07015 7.33245 8.06931 7.29157L3.75276 7.29156C3.00525 7.29156 2.39689 7.89991 2.39689 8.64742V21.754H23.6032V8.64742C23.6032 7.89991 22.9948 7.29156 22.2473 7.29156H17.4731C17.4453 7.3863 17.4111 7.47227 17.3621 7.54123C17.3206 9.51905 16.3373 11.2339 14.9085 12.1154C14.8511 12.3234 14.8194 12.5163 14.8134 12.6887L15.0983 12.4037C15.1648 12.3372 15.2552 12.2996 15.3497 12.2996H17.6547C19.6585 12.2996 21.2891 13.9297 21.2891 15.9335V20.71C21.2891 20.9065 21.1301 21.0655 20.9336 21.0655H5.06646C4.86994 21.0655 4.71098 20.9065 4.71098 20.71V15.9335C4.71098 13.9297 6.34107 12.2996 8.3449 12.2996L10.0831 12.2996C10.1776 12.2996 10.268 12.3372 10.3345 12.4037L10.6191 12.6883C10.613 12.5159 10.5814 12.3231 10.5242 12.1151C9.06499 11.2145 8.07068 9.44492 8.07068 7.41344V7.41148ZM8.03157 6.58062C7.90341 4.84915 7.57801 2.46605 8.64755 1.30443C9.05024 0.867201 9.60934 0.642241 10.3101 0.635633C11.6289 0.407607 12.9472 0.479221 14.1238 0.841794C16.7239 1.64349 18.5246 3.87151 17.6718 6.5806L22.2473 6.58062C23.3868 6.58062 24.3141 7.50788 24.3141 8.64742V21.754H25.6446C25.8411 21.754 26 21.913 26 22.1095V23.666C26 24.7202 25.1423 25.5779 24.0881 25.5779H1.9119C0.857694 25.5779 0 24.7202 0 23.666V22.1095C0 21.913 0.158932 21.754 0.355477 21.754H1.68591V8.64741C1.68591 7.50787 2.61317 6.5806 3.75271 6.5806L8.03157 6.58062ZM12.7161 5.01018C12.605 5.3102 12.3887 5.56737 12.0728 5.68537C11.598 5.86258 11.0038 5.68638 10.3066 5.1608C10.0354 4.95615 9.94147 4.98204 9.94046 4.98256C9.79361 5.0426 9.61311 5.61434 9.52456 5.87877C9.40456 6.23707 9.22093 6.77212 9.02928 7.11629C8.95587 7.25576 8.87431 7.39323 8.78264 7.52566C8.83391 10.0231 10.5788 12.0361 12.7167 12.0361C14.8815 12.0361 16.6436 9.97231 16.6517 7.43121L15.206 4.86372C15.0125 4.58747 14.7748 4.43208 14.4803 4.38891C13.7819 4.2874 12.9719 4.82407 12.7161 5.01018ZM14.3066 3.66627C14.9608 3.66627 15.4489 3.96861 15.8011 4.4742C15.8072 4.48283 15.8128 4.49197 15.8179 4.5011L16.9474 6.5061C17.3824 5.26868 17.1757 4.05161 16.3607 3.0711C15.1369 1.59847 12.7989 0.920029 10.4031 1.34152C10.3828 1.34508 10.3619 1.34711 10.3416 1.34711C9.82568 1.34711 9.44278 1.49081 9.17061 1.78636C8.39909 2.62433 8.58622 4.5635 8.70494 6.07732L8.85068 5.65387C9.06701 5.00895 9.25388 4.45189 9.73073 4.30409C10.0263 4.21218 10.3548 4.30715 10.7352 4.59354C11.2019 4.94547 11.598 5.10086 11.8214 5.02112C12.0047 4.95511 12.0636 4.7205 12.0641 4.71796C12.0809 4.63874 12.1236 4.57171 12.1865 4.52092C12.2322 4.48334 13.2499 3.66627 14.3066 3.66627ZM0.71094 22.465V23.666C0.71094 24.3282 1.24973 24.867 1.91192 24.867L24.0885 24.867C24.7507 24.867 25.2895 24.3282 25.2895 23.666V22.465H15.7873V22.888C15.7868 23.5132 15.2785 24.0215 14.6534 24.0215H11.3465C10.7214 24.0215 10.2131 23.5132 10.2131 22.888V22.465H0.71094ZM10.9241 22.465V22.8875C10.9241 23.1206 11.1135 23.31 11.3466 23.31L14.6535 23.31C14.8866 23.31 15.076 23.1206 15.076 22.8875V22.465L10.9241 22.465ZM13.5434 13.959L14.1836 13.3185C14.1009 13.0551 14.0888 12.7728 14.1147 12.5028C13.2139 12.8298 12.2197 12.8289 11.3187 12.5028C11.3451 12.7729 11.3329 13.0548 11.2501 13.3188L12.7167 14.7854L13.5434 13.959Z" fill="white"/>
</g>
<defs>
<clipPath id="clip0_15_2272">
<rect width="26" height="26" fill="white" transform="translate(0 0.0415039)"/>
</clipPath>
</defs>
</svg>
