<svg width="27" height="27" viewBox="0 0 27 27" fill="none" xmlns="http://www.w3.org/2000/svg">
<g clip-path="url(#clip0_16_2374)">
<path d="M13.2728 9.90094H3.52359C3.31325 9.90094 3.14278 10.0715 3.14278 10.2817C3.14278 10.4921 3.31325 10.6626 3.52359 10.6626H13.2728C13.4832 10.6626 13.6536 10.492 13.6536 10.2817C13.6536 10.0715 13.4832 9.90094 13.2728 9.90094Z" fill="white"/>
<path d="M13.2728 12.5769H3.52359C3.31325 12.5769 3.14278 12.7474 3.14278 12.9577C3.14278 13.168 3.31325 13.3385 3.52359 13.3385H13.2728C13.4832 13.3385 13.6536 13.168 13.6536 12.9577C13.6536 12.7474 13.4832 12.5769 13.2728 12.5769Z" fill="white"/>
<path d="M13.2728 15.2528H3.52359C3.31325 15.2528 3.14278 15.4234 3.14278 15.6336C3.14278 15.8439 3.31325 16.0145 3.52359 16.0145H13.2728C13.4832 16.0145 13.6536 15.8439 13.6536 15.6336C13.6536 15.4234 13.4832 15.2528 13.2728 15.2528Z" fill="white"/>
<path d="M13.6536 18.3096C13.6536 18.0993 13.4832 17.9288 13.2728 17.9288H3.52359C3.31325 17.9288 3.14278 18.0994 3.14278 18.3096C3.14278 18.5199 3.31325 18.6905 3.52359 18.6905H13.2728C13.4832 18.6905 13.6536 18.52 13.6536 18.3096Z" fill="white"/>
<path d="M3.52359 21.8505C3.31325 21.8505 3.14278 22.021 3.14278 22.2313C3.14278 22.4416 3.31325 22.6121 3.52359 22.6121H8.41067C8.62101 22.6121 8.79148 22.4416 8.79148 22.2313C8.79148 22.021 8.62101 21.8505 8.41067 21.8505H3.52359Z" fill="white"/>
<path d="M17.6613 5.39902V4.1633C17.6613 3.69256 17.2784 3.30957 16.8076 3.30957H8.98897C8.51823 3.30957 8.13528 3.69256 8.13528 4.1633V5.39902C8.13528 5.86976 8.51823 6.2527 8.98897 6.2527H9.64923C9.85956 6.2527 10.03 6.08218 10.03 5.87189C10.03 5.66155 9.85956 5.49108 9.64923 5.49108H8.98897C8.93824 5.49108 8.89695 5.4498 8.89695 5.39907V4.1633C8.89695 4.11257 8.93824 4.07124 8.98897 4.07124H16.8076C16.8584 4.07124 16.8997 4.11252 16.8997 4.1633V5.39902C16.8997 5.44975 16.8584 5.49103 16.8076 5.49103H11.4296C11.2193 5.49103 11.0488 5.66155 11.0488 5.87184C11.0488 6.08218 11.2193 6.25265 11.4296 6.25265H16.8077C17.2784 6.25275 17.6613 5.86976 17.6613 5.39902Z" fill="white"/>
<path d="M20.5088 23.9059C20.2985 23.9059 20.128 24.0764 20.128 24.2867V24.7995C20.128 25.4185 19.6244 25.9222 19.0054 25.9222H2.15808C1.53911 25.9222 1.03546 25.4186 1.03546 24.7995V6.49463C1.03546 6.41222 1.04511 6.33137 1.06232 6.25271H4.52982C5.25375 6.25271 5.84272 5.66375 5.84272 4.93981V1.47237C5.92138 1.45515 6.00217 1.44551 6.08459 1.44551H19.0053C19.6243 1.44551 20.128 1.9491 20.128 2.56813V7.63823C20.128 7.84856 20.2985 8.01904 20.5088 8.01904C20.7191 8.01904 20.8896 7.84851 20.8896 7.63823V2.56808C20.8897 1.52914 20.0444 0.683838 19.0054 0.683838H6.08464C5.58134 0.683838 5.10811 0.879854 4.75224 1.23573L0.82568 5.16229C0.469805 5.51816 0.27384 5.99134 0.27384 6.49469V24.7996C0.27384 25.8386 1.11909 26.6838 2.15808 26.6838H19.0054C20.0444 26.6838 20.8897 25.8385 20.8897 24.7996V24.2868C20.8897 24.0764 20.7192 23.9059 20.5088 23.9059ZM5.0811 1.98404V4.93981C5.0811 5.24379 4.83379 5.4911 4.52982 5.4911H1.57404L5.0811 1.98404Z" fill="white"/>
<path d="M25.7248 14.2932C25.9921 13.9008 26.0613 13.4168 25.9146 12.9652C25.7679 12.5137 25.4274 12.1628 24.9805 12.0025C24.684 11.8962 24.4862 11.624 24.4768 11.3092C24.4624 10.8346 24.2339 10.4024 23.8497 10.1233C23.4656 9.84423 22.9838 9.76049 22.5282 9.89343C22.2257 9.98169 21.9059 9.87769 21.7131 9.62861C21.4226 9.25308 20.9837 9.03772 20.5088 9.03772C20.0341 9.03772 19.5951 9.25308 19.3045 9.62861C19.1118 9.87774 18.7918 9.98159 18.4895 9.89343C18.0338 9.76039 17.5521 9.84423 17.1679 10.1233C16.7838 10.4024 16.5553 10.8346 16.5409 11.3091C16.5314 11.624 16.3337 11.8961 16.0372 12.0025C15.5903 12.1627 15.2498 12.5137 15.1031 12.9652C14.9564 13.4167 15.0256 13.9008 15.2929 14.2931C15.4702 14.5535 15.4702 14.8899 15.2929 15.1502C15.0256 15.5425 14.9564 16.0265 15.1031 16.4781C15.2498 16.9296 15.5903 17.2805 16.0372 17.4408C16.3337 17.5472 16.5315 17.8194 16.5409 18.1342C16.5542 18.5707 16.7542 18.9809 17.0898 19.2594C17.3113 19.4433 17.5773 19.5583 17.8558 19.5967V23.064C17.8558 23.3565 18.0145 23.6269 18.2699 23.7696C18.5249 23.9121 18.8385 23.9058 19.0878 23.7522L20.4845 22.8924C20.5073 22.8784 20.5208 22.8847 20.5334 22.8924L21.93 23.7522C22.1792 23.9056 22.4927 23.9122 22.748 23.7695C23.0034 23.6268 23.1621 23.3564 23.1621 23.0639V19.5966C23.4404 19.5582 23.7064 19.4432 23.9279 19.2594C24.2636 18.9809 24.4637 18.5708 24.4769 18.1342C24.4864 17.8193 24.6842 17.5471 24.9806 17.4408C25.4276 17.2805 25.7681 16.9296 25.9147 16.478C26.0614 16.0265 25.9923 15.5425 25.7249 15.1501C25.5474 14.8899 25.5474 14.5535 25.7248 14.2932ZM22.3292 23.1037L20.9325 22.2438C20.6729 22.084 20.345 22.0838 20.0851 22.2438L18.6884 23.1036C18.6567 23.123 18.6174 23.1007 18.6174 23.0639V19.5244C18.8792 19.4941 19.1388 19.6006 19.3045 19.8148C19.5951 20.1902 20.0341 20.4056 20.5089 20.4056C20.9837 20.4056 21.4226 20.1902 21.7131 19.8148C21.8789 19.6006 22.1385 19.4941 22.4003 19.5244V23.0639C22.4003 23.1009 22.3605 23.123 22.3292 23.1037ZM25.0954 15.5791C25.229 15.7752 25.2635 16.0171 25.1902 16.2428C25.1169 16.4684 24.9467 16.6438 24.7233 16.724C24.1301 16.9367 23.7345 17.4813 23.7155 18.1112C23.7087 18.3327 23.6114 18.5323 23.4414 18.6734C23.2503 18.832 22.9915 18.8918 22.7416 18.8188C22.1366 18.6423 21.4964 18.8503 21.1107 19.3487C20.9655 19.5363 20.7461 19.644 20.5088 19.644C20.2715 19.644 20.0521 19.5364 19.9068 19.3487C19.6124 18.968 19.1695 18.7568 18.7072 18.7568C18.5641 18.7568 18.4191 18.7771 18.2761 18.8188C18.0237 18.8923 17.7657 18.8307 17.5761 18.6733C17.4062 18.5322 17.3088 18.3326 17.3022 18.1112C17.2831 17.4813 16.8875 16.9367 16.2942 16.7239C16.0709 16.6438 15.9008 16.4684 15.8274 16.2428C15.754 16.0171 15.7886 15.7752 15.9222 15.5791C16.277 15.0582 16.277 14.3852 15.9222 13.8643C15.7886 13.6682 15.754 13.4263 15.8274 13.2006C15.9007 12.9749 16.0709 12.7995 16.2942 12.7194C16.8875 12.5066 17.2831 11.9621 17.3022 11.3321C17.3093 11.0949 17.4235 10.8789 17.6155 10.7395C17.8074 10.6 18.0481 10.5581 18.276 10.6245C18.8809 10.8011 19.5212 10.593 19.9068 10.0947C20.0521 9.90699 20.2714 9.79934 20.5088 9.79934C20.7461 9.79934 20.9655 9.90694 21.1107 10.0946C21.4964 10.593 22.1364 10.801 22.7415 10.6245C22.9694 10.558 23.2101 10.5999 23.4021 10.7394C23.5941 10.8788 23.7083 11.0949 23.7154 11.3321C23.7345 11.962 24.1301 12.5066 24.7233 12.7194C24.9467 12.7994 25.1168 12.9748 25.1902 13.2005C25.2635 13.4262 25.229 13.6682 25.0954 13.8642C24.7404 14.3851 24.7404 15.0582 25.0954 15.5791Z" fill="white"/>
<path d="M20.5088 11.5298C18.7489 11.5298 17.317 12.9617 17.317 14.7217C17.317 16.4816 18.7489 17.9135 20.5088 17.9135C22.2688 17.9135 23.7006 16.4816 23.7006 14.7217C23.7006 12.9617 22.2688 11.5298 20.5088 11.5298ZM20.5088 17.1518C19.1688 17.1518 18.0787 16.0617 18.0787 14.7217C18.0787 13.3817 19.1688 12.2915 20.5088 12.2915C21.8489 12.2915 22.939 13.3817 22.939 14.7217C22.939 16.0617 21.8488 17.1518 20.5088 17.1518Z" fill="white"/>
</g>
<defs>
<clipPath id="clip0_16_2374">
<rect width="26" height="26" fill="white" transform="translate(0.131958 0.683838)"/>
</clipPath>
</defs>
</svg>
