<svg width="21" height="27" viewBox="0 0 21 27" fill="none" xmlns="http://www.w3.org/2000/svg">
<path d="M20.5088 23.9059C20.2985 23.9059 20.128 24.0764 20.128 24.2867V24.7995C20.128 25.4185 19.6244 25.9222 19.0054 25.9222H2.15808C1.53911 25.9222 1.03546 25.4186 1.03546 24.7995V6.49463C1.03546 6.41222 1.04511 6.33137 1.06232 6.25271H4.52982C5.25375 6.25271 5.84272 5.66375 5.84272 4.93981V1.47237C5.92138 1.45515 6.00217 1.44551 6.08459 1.44551H19.0053C19.6243 1.44551 20.128 1.9491 20.128 2.56813V7.63823C20.128 7.84856 20.2985 8.01904 20.5088 8.01904C20.7191 8.01904 20.8896 7.84851 20.8896 7.63823V2.56808C20.8897 1.52914 20.0444 0.683838 19.0054 0.683838H6.08464C5.58134 0.683838 5.10811 0.879854 4.75224 1.23573L0.82568 5.16229C0.469805 5.51816 0.27384 5.99134 0.27384 6.49469V24.7996C0.27384 25.8386 1.11909 26.6838 2.15808 26.6838H19.0054C20.0444 26.6838 20.8897 25.8385 20.8897 24.7996V24.2868C20.8897 24.0764 20.7192 23.9059 20.5088 23.9059ZM5.0811 1.98404V4.93981C5.0811 5.24379 4.83379 5.4911 4.52982 5.4911H1.57404L5.0811 1.98404Z" fill="white"/>
</svg>
