<svg width="60" height="60" viewBox="0 0 60 60" fill="none" xmlns="http://www.w3.org/2000/svg">
<g clip-path="url(#clip0_108_51)">
<path d="M59.5295 45.0329C58.5663 43.3648 56.4333 42.7849 54.7592 43.7286L45.8988 35.9915V31.1722H50.8271C51.3109 32.5361 52.6135 33.516 54.1413 33.516C56.0799 33.516 57.657 31.9388 57.657 30.0002C57.657 28.0616 56.0799 26.4845 54.1413 26.4845C52.6136 26.4845 51.3109 27.4643 50.8271 28.8283H45.8988V24.0089L54.7594 16.2718C55.2872 16.5681 55.885 16.7246 56.4906 16.7246C57.0867 16.7246 57.6904 16.5731 58.2426 16.2543C59.9214 15.285 60.4987 13.1306 59.5294 11.4517C58.5601 9.77292 56.4057 9.19564 54.7269 10.1649C53.9137 10.6344 53.3318 11.3926 53.0888 12.2997C52.8903 13.0403 52.9373 13.8078 53.2168 14.5074L44.7812 21.8735L38.1267 15.2191L38.6788 14.5868C39.1045 14.0993 39.0544 13.359 38.5668 12.9332C38.0796 12.5076 37.339 12.5576 36.9134 13.0452L35.9911 14.1013H31.1718V9.1729C32.5358 8.68913 33.5156 7.38655 33.5156 5.85872C33.5156 3.92013 31.9385 2.34296 29.9999 2.34296C28.0613 2.34296 26.4841 3.92013 26.4841 5.85872C26.4841 7.38643 27.464 8.68913 28.828 9.1729V14.1013H24.0087L16.2711 5.24018C16.8588 4.19283 16.8968 2.87079 16.254 1.75747C15.2847 0.0786965 13.1301 -0.49859 11.4513 0.470586C9.77245 1.43976 9.19516 3.59422 10.1645 5.27323C10.815 6.39979 11.9991 7.03028 13.2151 7.03028C13.6489 7.03028 14.0868 6.94883 14.5059 6.78219L21.873 15.2189L15.2185 21.8733L6.78289 14.5072C7.06239 13.8078 7.10938 13.0402 6.91086 12.2996C6.66781 11.3925 6.08595 10.6344 5.27264 10.1648C3.59398 9.19552 1.43964 9.77281 0.470114 11.4517C-0.499179 13.1305 0.0781077 15.2849 1.75688 16.2542C2.30921 16.5731 2.91263 16.7246 3.50878 16.7245C4.11443 16.7245 4.71211 16.5678 5.24006 16.2716L14.1007 24.0088V28.8282H9.17243C8.68866 27.4642 7.38607 26.4844 5.85824 26.4844C3.91966 26.4844 2.34249 28.0615 2.34249 30.0001C2.34249 31.9387 3.91966 33.5159 5.85824 33.5159C7.38596 33.5159 8.68866 32.536 9.17243 31.172H14.1007V35.9914L5.24029 43.7284C3.56632 42.7849 1.43343 43.3647 0.469997 45.0328V45.0329C-0.499296 46.7118 0.0779905 48.8662 1.75676 49.8354C2.30909 50.1543 2.91251 50.3057 3.50866 50.3057C4.72465 50.3057 5.90899 49.6751 6.5594 48.5485C7.117 47.5826 7.16189 46.4596 6.78031 45.4951L15.2182 38.127L21.8727 44.7814L14.5047 53.2193C13.5401 52.8379 12.417 52.8826 11.4511 53.4404C9.77222 54.4095 9.19493 56.564 10.1642 58.243C10.8148 59.3696 11.9989 60.0001 13.215 60.0001C13.811 60.0001 14.4147 59.8486 14.9669 59.5298C16.635 58.5667 17.2147 56.4337 16.2713 54.7595L24.0083 45.8991H28.8276V50.8274C27.4636 51.3112 26.4838 52.6138 26.4838 54.1416C26.4838 56.0802 28.0609 57.6574 29.9995 57.6574C31.9381 57.6574 33.5153 56.0802 33.5153 54.1416C33.5153 52.6139 32.5354 51.3112 31.1714 50.8274V45.8991H35.9907L43.7279 54.7596C42.7843 56.4337 43.3642 58.5667 45.0323 59.5299C45.5846 59.8486 46.1882 60.0002 46.7842 60.0001C48.0002 60.0001 49.1845 59.3696 49.835 58.2429C50.8041 56.564 50.227 54.4095 48.548 53.4404C47.5821 52.8828 46.459 52.838 45.4945 53.2195L38.1263 44.7814L44.7808 38.127L53.2188 45.4951C52.8373 46.4596 52.8821 47.5826 53.4397 48.5487C54.0902 49.6752 55.2743 50.3057 56.4904 50.3057C57.0863 50.3057 57.6901 50.1543 58.2423 49.8354C59.9211 48.8661 60.4984 46.7118 59.5291 45.0329C59.5295 45.033 59.5295 45.033 59.5295 45.0329ZM54.1414 28.8283C54.7876 28.8283 55.3133 29.354 55.3133 30.0002C55.3133 30.6464 54.7876 31.1722 54.1414 31.1722C53.4952 31.1722 52.9695 30.6464 52.9695 30.0002C52.9695 29.354 53.4952 28.8283 54.1414 28.8283ZM29.9999 4.6868C30.6461 4.6868 31.1718 5.21252 31.1718 5.85872C31.1718 6.50491 30.6461 7.03063 29.9999 7.03063C29.3537 7.03063 28.828 6.50491 28.828 5.85872C28.828 5.21252 29.3537 4.6868 29.9999 4.6868ZM5.85836 31.1722C5.21217 31.1722 4.68644 30.6464 4.68644 30.0002C4.68644 29.354 5.21217 28.8283 5.85836 28.8283C6.50456 28.8283 7.03028 29.354 7.03028 30.0002C7.03028 30.6464 6.50444 31.1722 5.85836 31.1722ZM29.9999 55.3137C29.3537 55.3137 28.828 54.7879 28.828 54.1418C28.828 53.4956 29.3537 52.9698 29.9999 52.9698C30.6461 52.9698 31.1718 53.4956 31.1718 54.1418C31.1718 54.7879 30.646 55.3137 29.9999 55.3137ZM55.8989 12.1947C56.083 12.0883 56.2841 12.0379 56.4829 12.0379C56.8881 12.0379 57.2828 12.2481 57.4998 12.6236C57.8229 13.1832 57.6303 13.9015 57.0708 14.2246C56.5109 14.5476 55.7931 14.3551 55.4699 13.7957C55.3134 13.5246 55.2718 13.2088 55.3528 12.9064C55.4338 12.604 55.6277 12.3513 55.8989 12.1947ZM12.1942 4.10131C11.8711 3.5416 12.0637 2.82345 12.6233 2.50035C12.8073 2.39406 13.0085 2.34366 13.2071 2.34366C13.6125 2.34366 14.0072 2.55391 14.2241 2.92939C14.5471 3.48898 14.3547 4.20713 13.7952 4.53023C13.2352 4.85321 12.5174 4.66066 12.1942 4.10131ZM2.9288 14.2245C2.36933 13.9014 2.17678 13.1832 2.49988 12.6236C2.7168 12.248 3.1115 12.0378 3.51675 12.0378C3.71539 12.0378 3.91673 12.0883 4.10072 12.1946C4.37178 12.3511 4.56585 12.6039 4.64683 12.9063C4.72781 13.2086 4.68621 13.5245 4.52976 13.7954C4.20666 14.3551 3.48886 14.5476 2.9288 14.2245ZM4.52987 47.3767C4.20666 47.9363 3.48851 48.1289 2.92892 47.8058C2.36944 47.4827 2.1769 46.7646 2.49999 46.2049C2.82321 45.6452 3.54136 45.4529 4.10083 45.7759C4.66043 46.0991 4.85285 46.8173 4.52987 47.3767ZM13.7953 57.5C13.2358 57.8231 12.5174 57.6307 12.1942 57.0711C11.8711 56.5115 12.0637 55.7933 12.6233 55.4701C12.8074 55.3638 13.0085 55.3133 13.2072 55.3133C13.6125 55.3133 14.0072 55.5236 14.2241 55.899C14.5472 56.4589 14.3549 57.177 13.7953 57.5ZM46.7924 55.3134C46.9911 55.3134 47.1924 55.3639 47.3764 55.4702C47.936 55.7933 48.1285 56.5115 47.8054 57.0711C47.4823 57.6306 46.7642 57.8233 46.2045 57.5001C45.6449 57.177 45.4524 56.4589 45.7755 55.8993C45.9924 55.5237 46.3872 55.3134 46.7924 55.3134ZM43.5551 36.0384L36.0381 43.5553H23.9616L16.4445 36.0384V23.9619L23.9616 16.445H36.0381L43.5551 23.9619V36.0384ZM57.0708 47.8058C56.5109 48.1288 55.7931 47.9363 55.4699 47.3769C55.1468 46.8173 55.3393 46.0991 55.8989 45.7759C56.083 45.6696 56.2841 45.6191 56.4829 45.6191C56.8881 45.6191 57.2828 45.8293 57.4998 46.2049C57.8229 46.7646 57.6303 47.4827 57.0708 47.8058Z" fill="#687383"/>
<path d="M40.8866 11.4485C42.3946 11.4485 42.3971 9.1048 40.8866 9.1048C39.3785 9.1048 39.3759 11.4485 40.8866 11.4485Z" fill="#687383"/>
<path d="M43.2061 7.62033C43.4283 7.8144 43.7028 7.90956 43.9764 7.90956C44.303 7.90956 44.628 7.77373 44.8595 7.50853L45.4939 6.78217C45.9131 6.94882 46.3507 7.03015 46.7846 7.03015C48.0006 7.03015 49.185 6.39954 49.8354 5.27298C50.8046 3.59409 50.2274 1.43963 48.5484 0.470455C46.8696 -0.498839 44.7153 0.0784484 43.7459 1.75722C43.1031 2.87054 43.1411 4.1927 43.7287 5.24005L43.094 5.96687C42.6684 6.45439 42.7185 7.19469 43.2061 7.62033ZM45.7757 2.92926C46.0989 2.36955 46.8172 2.17735 47.3766 2.50022C47.9362 2.82332 48.1287 3.54147 47.8056 4.10106C47.4824 4.66065 46.7646 4.85308 46.2047 4.5301C45.6452 4.20688 45.4528 3.48885 45.7757 2.92926Z" fill="#687383"/>
<path d="M29.2581 25.0303C29.2541 25.0196 29.2499 25.0088 29.2455 24.9981C29.031 24.4771 28.5287 24.1406 27.9653 24.1406C27.9648 24.1406 27.9642 24.1406 27.9639 24.1406C27.3999 24.1412 26.8974 24.4788 26.6839 25.0007C26.6802 25.0096 26.6766 25.0185 26.6733 25.0275L23.1529 34.2708C22.9225 34.8756 23.226 35.5528 23.8308 35.783C23.9682 35.8353 24.1091 35.8602 24.2478 35.8602C24.72 35.8602 25.1651 35.5726 25.3432 35.105L25.9326 33.5577H29.9712L30.5539 35.1016C30.7823 35.7071 31.4579 36.0129 32.0642 35.7842C32.6697 35.5557 32.9752 34.8795 32.7467 34.274L29.2581 25.0303ZM26.8252 31.2137L27.9612 28.2314L29.0867 31.2137H26.8252Z" fill="#687383"/>
<path d="M34.58 25.3124V34.6878C34.58 35.335 35.1048 35.8597 35.752 35.8597C36.3991 35.8597 36.9239 35.335 36.9239 34.6878V25.3124C36.9239 24.6652 36.3991 24.1405 35.752 24.1405C35.1047 24.1405 34.58 24.6652 34.58 25.3124Z" fill="#687383"/>
</g>
<defs>
<clipPath id="clip0_108_51">
<rect width="60" height="60" fill="white"/>
</clipPath>
</defs>
</svg>
