<svg width="60" height="60" viewBox="0 0 60 60" fill="none" xmlns="http://www.w3.org/2000/svg">
<g clip-path="url(#clip0_108_115)">
<path d="M60 30C60 25.734 57.3696 21.9195 53.4798 20.3604C53.5752 19.8322 53.6235 19.2933 53.6235 18.7484C53.6235 15.08 51.4286 11.8348 48.0901 10.4544C47.244 5.89032 43.2616 2.5343 38.5405 2.5343C34.8577 2.5343 31.6472 4.59586 30.0015 7.62586C28.3553 4.59586 25.1436 2.5343 21.4595 2.5343C16.7419 2.5343 12.7597 5.89055 11.9105 10.4542C8.5718 11.8344 6.37652 15.0799 6.37652 18.7484C6.37652 19.2877 6.42422 19.8297 6.5202 20.3604C2.63039 21.9195 0 25.734 0 30C0 34.2646 2.63004 38.0801 6.51984 39.642C6.30773 40.8134 6.33176 42.0304 6.58699 43.1929C7.20961 46.0334 9.17602 48.4153 11.9105 49.5457C12.7597 54.1093 16.742 57.4656 21.4595 57.4656C25.1436 57.4656 28.3553 55.4047 30.0015 52.3758C31.6472 55.4048 34.8577 57.4656 38.5405 57.4656C43.2616 57.4656 47.2441 54.1096 48.0901 49.5455C51.4284 48.1651 53.6235 44.9197 53.6235 41.2515C53.6235 40.7067 53.5756 40.1685 53.4802 39.642C57.37 38.0801 60 34.2646 60 30ZM21.4595 55.122C17.6913 55.122 14.5417 52.301 14.1325 48.56C14.1043 48.2926 14.0891 48.024 14.0891 47.7551C14.0891 43.6911 17.3954 40.3848 21.4595 40.3848C22.1066 40.3848 22.6314 39.8602 22.6314 39.2129C22.6314 38.5657 22.1066 38.0411 21.4595 38.0411C16.4087 38.0411 12.2477 41.9161 11.7891 46.8491C10.5304 46.05 9.58289 44.8536 9.09387 43.455C8.66566 42.2302 8.59934 40.8728 8.92395 39.6149C9.32473 38.0332 10.3002 36.6393 11.6979 35.7163C12.2379 35.3597 12.3866 34.6328 12.03 34.0927C11.6735 33.5527 10.9467 33.4036 10.4064 33.7606C9.01371 34.6801 7.9316 35.9457 7.24066 37.4034C4.3125 36.1568 2.34375 33.2468 2.34375 30C2.34375 26.7516 4.31309 23.8423 7.24184 22.5988C7.93254 24.0557 9.01383 25.3213 10.4053 26.2424C10.6044 26.3742 10.8289 26.4372 11.0511 26.4372C11.4311 26.4372 11.8039 26.2526 12.0294 25.912C12.3866 25.3724 12.2387 24.6452 11.6991 24.288C10.3945 23.4246 9.45809 22.152 9.01301 20.7006C8.81953 20.0695 8.72039 19.4087 8.72039 18.7486C8.72039 16.4319 9.90527 14.3446 11.7888 13.1496C12.2453 18.0831 16.4072 21.9592 21.4596 21.9592C22.1067 21.9592 22.6315 21.4345 22.6315 20.7873C22.6315 20.1401 22.1067 19.6154 21.4596 19.6154C17.3955 19.6154 14.0892 16.3106 14.0892 12.2484C14.0892 11.9756 14.1038 11.7055 14.1323 11.4456C14.1326 11.443 14.1326 11.4404 14.1328 11.4379C14.5431 7.69793 17.6921 4.87805 21.4595 4.87805C25.5236 4.87805 28.8299 8.18438 28.8299 12.2483V47.755C28.8299 51.8172 25.5236 55.122 21.4595 55.122ZM51.7706 37.7501C51.4634 37.8355 51.2041 38.0425 51.0529 38.3231C50.9016 38.6039 50.8711 38.9343 50.9688 39.2379C51.1751 39.8795 51.2796 40.557 51.2796 41.2516C51.2796 44.1478 49.429 46.687 46.6747 47.57C46.2336 47.7115 45.9173 48.0993 45.8674 48.5596C45.4617 52.3007 42.3117 55.122 38.5404 55.122C34.4783 55.122 31.1735 51.8172 31.1735 47.755V36.6709H36.439L38.0385 39.4427C37.3488 40.1746 36.9247 41.1597 36.9247 42.2427C36.9247 44.4933 38.7557 46.3242 41.0063 46.3242C43.2587 46.3242 45.0911 44.4932 45.0911 42.2427C45.0911 39.9902 43.2586 38.1578 41.0063 38.1578C40.6828 38.1578 40.3685 38.1968 40.0666 38.2683L38.1306 34.9133C37.9213 34.5506 37.5343 34.3272 37.1156 34.3272H31.1735V31.1719H44.2577C44.7627 32.8548 46.3253 34.0849 48.1704 34.0849C50.421 34.0849 52.2519 32.2525 52.2519 30C52.2519 27.7494 50.421 25.9185 48.1704 25.9185C46.3256 25.9185 44.7633 27.1471 44.258 28.8281H31.1736V25.6729H37.1157C37.5345 25.6729 37.9214 25.4494 38.1307 25.0867L40.0668 21.7318C40.3686 21.8033 40.683 21.8422 41.0064 21.8422C43.2588 21.8422 45.0912 20.0113 45.0912 17.7607C45.0912 15.5082 43.2587 13.6758 41.0064 13.6758C38.7558 13.6758 36.9248 15.5082 36.9248 17.7607C36.9248 18.8426 37.3487 19.8267 38.0382 20.558L36.4391 23.3291H31.1736V12.2483C31.1736 8.18438 34.4784 4.87805 38.5405 4.87805C42.312 4.87805 45.4618 7.69922 45.8675 11.4404C45.9175 11.9009 46.2337 12.2886 46.6748 12.43C49.4291 13.313 51.2797 15.8522 51.2797 18.7484C51.2797 19.4423 51.175 20.1214 50.9684 20.7669C50.8712 21.0706 50.902 21.4008 51.0536 21.6813C51.2051 21.9619 51.4644 22.1685 51.7717 22.2536C55.2364 23.2133 57.6562 26.3988 57.6562 30C57.6562 33.6002 55.2361 36.7872 51.7706 37.7501ZM39.2686 42.2427C39.2686 41.2826 40.0481 40.5015 41.0064 40.5015C41.9664 40.5015 42.7474 41.2826 42.7474 42.2427C42.7474 43.2009 41.9664 43.9805 41.0064 43.9805C40.0481 43.9805 39.2686 43.2008 39.2686 42.2427ZM46.4293 30C46.4293 29.0418 47.2104 28.2622 48.1704 28.2622C49.1286 28.2622 49.9082 29.0418 49.9082 30C49.9082 30.9601 49.1286 31.7412 48.1704 31.7412C47.2104 31.7412 46.4293 30.9601 46.4293 30ZM39.2686 17.7607C39.2686 16.8006 40.0481 16.0195 41.0064 16.0195C41.9664 16.0195 42.7474 16.8006 42.7474 17.7607C42.7474 18.719 41.9664 19.4985 41.0064 19.4985C40.0481 19.4985 39.2686 18.719 39.2686 17.7607Z" fill="#687383"/>
</g>
<defs>
<clipPath id="clip0_108_115">
<rect width="60" height="60" fill="white"/>
</clipPath>
</defs>
</svg>
