<svg width="60" height="60" viewBox="0 0 60 60" fill="none" xmlns="http://www.w3.org/2000/svg">
<path d="M3.63281 60H14.1797V49.2188H3.63281V60ZM7.14844 52.7344H10.6641V56.4844H7.14844V52.7344Z" fill="#687383"/>
<path d="M17.6953 60H28.2422V35.1562H17.6953V60ZM21.2109 38.6719H24.7266V56.4844H21.2109V38.6719Z" fill="#687383"/>
<path d="M31.7578 60H42.3047V42.1875H31.7578V60ZM35.2734 45.7031H38.7891V56.4844H35.2734V45.7031Z" fill="#687383"/>
<path d="M45.8203 60H56.3672V24.6094H45.8203V60ZM49.3359 28.125H52.8516V56.4844H49.3359V28.125Z" fill="#687383"/>
<path d="M49.7985 10.3854C50.2131 10.4905 50.6469 10.5469 51.0938 10.5469C54.0015 10.5469 56.3672 8.18121 56.3672 5.27344C56.3672 2.36566 54.0015 0 51.0938 0C48.186 0 45.8203 2.36566 45.8203 5.27344C45.8203 6.45773 46.2129 7.55203 46.8745 8.43328L38.3265 21.2552C37.9119 21.1501 37.4781 21.0938 37.0312 21.0938C35.6121 21.0938 34.323 21.6582 33.3741 22.5734L28.2006 19.9866C28.227 19.7732 28.2422 19.5564 28.2422 19.3359C28.2422 16.4282 25.8765 14.0625 22.9688 14.0625C20.061 14.0625 17.6953 16.4282 17.6953 19.3359C17.6953 20.2331 17.9211 21.0783 18.3179 21.8187L10.9405 32.0493C10.3141 31.7863 9.62695 31.6406 8.90625 31.6406C5.99848 31.6406 3.63281 34.0063 3.63281 36.9141C3.63281 39.8218 5.99848 42.1875 8.90625 42.1875C11.814 42.1875 14.1797 39.8218 14.1797 36.9141C14.1797 36.0169 13.9539 35.1717 13.5571 34.4313L20.9345 24.2007C21.5609 24.4637 22.248 24.6094 22.9688 24.6094C24.3879 24.6094 25.677 24.0449 26.6259 23.1298L31.7994 25.7166C31.773 25.93 31.7578 26.1468 31.7578 26.3672C31.7578 29.275 34.1235 31.6406 37.0312 31.6406C39.939 31.6406 42.3047 29.275 42.3047 26.3672C42.3047 25.1829 41.9121 24.0886 41.2505 23.2073L49.7985 10.3854ZM51.0938 3.51562C52.063 3.51562 52.8516 4.30418 52.8516 5.27344C52.8516 6.2427 52.063 7.03125 51.0938 7.03125C50.1245 7.03125 49.3359 6.2427 49.3359 5.27344C49.3359 4.30418 50.1245 3.51562 51.0938 3.51562ZM8.90625 38.6719C7.93699 38.6719 7.14844 37.8833 7.14844 36.9141C7.14844 35.9448 7.93699 35.1562 8.90625 35.1562C9.87551 35.1562 10.6641 35.9448 10.6641 36.9141C10.6641 37.8833 9.87551 38.6719 8.90625 38.6719ZM22.9688 21.0938C21.9995 21.0938 21.2109 20.3052 21.2109 19.3359C21.2109 18.3667 21.9995 17.5781 22.9688 17.5781C23.938 17.5781 24.7266 18.3667 24.7266 19.3359C24.7266 20.3052 23.938 21.0938 22.9688 21.0938ZM37.0312 28.125C36.062 28.125 35.2734 27.3364 35.2734 26.3672C35.2734 25.3979 36.062 24.6094 37.0312 24.6094C38.0005 24.6094 38.7891 25.3979 38.7891 26.3672C38.7891 27.3364 38.0005 28.125 37.0312 28.125Z" fill="#687383"/>
</svg>
