<svg width="95" height="91" viewBox="0 0 95 91" fill="none" xmlns="http://www.w3.org/2000/svg">
<g clip-path="url(#clip0_14_2139)">
<mask id="mask0_14_2139" style="mask-type:luminance" maskUnits="userSpaceOnUse" x="0" y="22" width="70" height="69">
<path d="M69.7222 22.0229H0.833313V90.9118H69.7222V22.0229Z" fill="white"/>
</mask>
<g mask="url(#mask0_14_2139)">
<path d="M28.4252 29.952C28.175 29.7016 27.8278 29.5576 27.474 29.5576C27.1201 29.5576 26.773 29.7015 26.5226 29.952C26.2724 30.2022 26.1284 30.5493 26.1284 30.9032C26.1284 31.2571 26.2724 31.6042 26.5226 31.8543C26.773 32.1047 27.1201 32.2486 27.474 32.2486C27.8278 32.2486 28.175 32.1047 28.4252 31.8543C28.6754 31.6042 28.8194 31.2571 28.8194 30.9032C28.8194 30.5493 28.6754 30.2022 28.4252 29.952Z" fill="white"/>
<path d="M22.5015 29.5576H17.0963C16.3532 29.5576 15.7509 30.1602 15.7509 30.9032C15.7509 31.6462 16.3532 32.2486 17.0963 32.2486H22.5015C23.2446 32.2486 23.8471 31.6462 23.8471 30.9032C23.8471 30.1602 23.2446 29.5576 22.5015 29.5576Z" fill="white"/>
<path d="M23.5807 37.0924H17.0963C16.3532 37.0924 15.7509 37.695 15.7509 38.4379C15.7509 39.1809 16.3532 39.7834 17.0963 39.7834H23.5807C24.3239 39.7834 24.9262 39.1809 24.9262 38.4379C24.9262 37.695 24.3239 37.0924 23.5807 37.0924Z" fill="white"/>
<path d="M69.2029 50.0249C69.203 50.0245 69.2032 50.0243 69.2034 50.0238L60.3232 43.1085C60.3169 43.1036 60.3101 43.0997 60.3038 43.0948V41.6671C60.3038 40.9241 59.7014 40.3216 58.9583 40.3216C58.2152 40.3216 57.6129 40.9241 57.6129 41.6671V59.9208C57.6129 59.9291 57.6139 59.9369 57.6141 59.9452L46.4809 71.0784L45.1918 69.9075C43.177 68.0771 40.7219 66.8568 38.0908 66.3471L41.5842 62.8536C42.1096 62.3282 42.1096 61.4763 41.5842 60.9507L37.0646 56.4311L56.7604 48.0342C57.1715 47.8588 57.4689 47.4908 57.5538 47.0521C57.6386 46.6133 57.5002 46.1609 57.1842 45.8449L50.7529 39.4135C51.2972 38.5251 51.5891 37.5019 51.5891 36.4336C51.5891 34.9059 50.9942 33.4699 49.9141 32.3896C48.834 31.3095 47.3978 30.7146 45.8701 30.7146C44.8018 30.7146 43.7786 31.0065 42.8902 31.5508L36.4589 25.1195C36.1426 24.8033 35.6905 24.6644 35.2514 24.7499C34.8125 24.8351 34.4446 25.1325 34.2694 25.5437L25.2021 46.8394L20.3218 51.7196C18.9504 53.0909 18.1951 54.9143 18.1951 56.8537C18.1951 58.7931 18.9504 60.6163 20.3218 61.9876C21.6931 63.3589 23.5164 64.1143 25.4559 64.1143C27.3952 64.1143 29.2185 63.3591 30.5899 61.9876L31.103 61.4745L35.7118 66.0833C35.5673 66.0792 35.4225 66.0762 35.2775 66.0762C31.6036 66.0762 28.0828 67.4366 25.3634 69.9071L24.0743 71.0781L12.9411 59.9448C12.9412 59.9366 12.9423 59.9286 12.9423 59.9203V24.7139H28.01C28.7531 24.7139 29.3554 24.1114 29.3554 23.3684C29.3554 22.6255 28.7531 22.0229 28.01 22.0229H11.5972C10.8541 22.0229 10.2517 22.6255 10.2517 23.3684V42.8798C10.2401 42.8886 10.2279 42.8962 10.2166 42.9053L1.33639 50.0364C1.33626 50.0361 1.33653 50.0366 1.33639 50.0364C1.02975 50.2829 0.833313 50.6614 0.833313 51.0854V84.0498C0.833313 87.8335 3.91151 90.9118 7.69529 90.9118H62.8602C66.644 90.9118 69.7222 87.8335 69.7222 84.0498V51.0854C69.7222 50.6541 69.5185 50.2712 69.2029 50.0249ZM60.3038 46.504L66.3483 51.2109L60.3038 57.2554V46.504ZM45.8702 33.4059C46.679 33.4059 47.4394 33.7208 48.0114 34.2928C48.5833 34.8647 48.8982 35.6251 48.8982 36.4339C48.8982 36.7676 48.8418 37.0919 48.7385 37.3994L44.9048 33.5655C45.2122 33.4623 45.5365 33.4059 45.8702 33.4059ZM35.965 28.4314L41.8246 34.2909C41.8252 34.2915 41.8258 34.2922 41.8262 34.2928C41.8268 34.2935 41.8274 34.2939 41.8281 34.2945L48.0113 40.4776L53.8734 46.3398L51.017 47.5576L34.7483 31.2889L35.965 28.4314ZM33.6118 33.9582L48.3487 48.6951L35.0143 54.3801L27.9321 47.2977L33.6118 33.9582ZM28.6873 60.0852C27.8243 60.9483 26.6768 61.4236 25.4561 61.4236C24.2355 61.4236 23.088 60.9483 22.2248 60.0852C21.3616 59.2222 20.8863 58.0746 20.8863 56.8539C20.8863 55.6333 21.3616 54.4857 22.2248 53.6226L26.3381 49.5094L32.8003 55.9723L28.6873 60.0852ZM33.0061 59.5719L34.703 57.8752L38.73 61.9022L37.0331 63.5991L33.0061 59.5719ZM10.2517 46.3282V57.2556L4.19125 51.1951L10.2517 46.3282ZM5.85615 87.6287C5.81807 87.6633 5.78296 87.7001 5.74972 87.7377C4.42751 87.0374 3.52429 85.6475 3.52429 84.0498V54.3338L22.0805 72.8899L5.85615 87.6287ZM9.20627 88.2208L13.6496 84.1844H23.5259C24.269 84.1844 24.8713 83.5819 24.8713 82.8389C24.8713 82.0959 24.269 81.4934 23.5259 81.4934H16.6119L27.1732 71.8991C31.7936 67.7018 38.762 67.7018 43.3824 71.8991L61.3492 88.2208H9.20627ZM67.0312 84.0498C67.0312 85.6475 66.128 87.0374 64.8058 87.7377C64.7725 87.6998 64.7374 87.6633 64.6994 87.6287L48.4751 72.8899L67.0312 54.3338V84.0498Z" fill="white"/>
<path d="M59.963 22.4702C59.4375 21.945 58.5855 21.945 58.0602 22.4702L52.625 27.9054C52.0995 28.4309 52.0995 29.2829 52.625 29.8084C52.8878 30.071 53.232 30.2025 53.5763 30.2025C53.9206 30.2025 54.2651 30.071 54.5278 29.8084L59.963 24.3732C60.4884 23.8478 60.4884 22.9958 59.963 22.4702Z" fill="white"/>
<path d="M48.5189 22.0229C47.7758 22.0229 47.1734 22.6255 47.1734 23.3684V26.0711C47.1734 26.8141 47.7758 27.4166 48.5189 27.4166C49.262 27.4166 49.8643 26.8141 49.8643 26.0711V23.3684C49.8643 22.6255 49.262 22.0229 48.5189 22.0229Z" fill="white"/>
<path d="M59.0506 32.4532H56.2575C55.5144 32.4532 54.9121 33.0558 54.9121 33.7988C54.9121 34.5417 55.5144 35.1442 56.2575 35.1442H59.0506C59.7937 35.1442 60.3962 34.5417 60.3962 33.7988C60.3962 33.0558 59.7937 32.4532 59.0506 32.4532Z" fill="white"/>
<path d="M29.9942 81.8876C29.7426 81.6374 29.3968 81.4934 29.043 81.4934C28.6878 81.4934 28.342 81.6373 28.0903 81.8876C27.8401 82.138 27.6974 82.4851 27.6974 82.839C27.6974 83.1929 27.8401 83.54 28.0903 83.7901C28.342 84.0404 28.6891 84.1844 29.043 84.1844C29.3968 84.1844 29.7426 84.0404 29.9942 83.7901C30.2444 83.54 30.3884 83.1929 30.3884 82.839C30.3884 82.4851 30.2444 82.138 29.9942 81.8876Z" fill="white"/>
</g>
<path d="M94.1667 15.8268C93.6041 16.2455 93.3228 16.6643 93.0414 16.804C91.635 17.3624 90.2285 17.9208 88.8221 18.4792C86.7123 19.1772 85.4465 20.5733 85.1652 22.807C84.884 24.6219 84.6027 26.4368 84.1808 28.2517C84.0401 28.81 83.6181 29.6477 83.1962 29.7873C82.3523 29.9269 82.3523 28.9497 82.2117 28.3912C81.6491 26.716 81.0864 24.9011 80.6645 23.2258C79.9613 20.8525 78.4142 19.5961 75.8825 19.5961C74.898 19.5961 74.0541 19.4564 73.0697 19.3169C72.507 19.3169 72.2258 19.0377 71.9444 18.7584C72.2258 18.4792 72.3663 18.0604 72.6476 17.9208C74.0541 17.3624 75.6012 16.804 77.0078 16.3851C78.4142 15.9663 79.3988 14.9891 79.68 13.593C80.2426 11.3594 80.6645 9.12567 81.2271 7.03159C81.5084 6.33356 81.2271 5.35632 82.2117 5.35632C83.1962 5.35632 83.0555 6.19396 83.1962 6.75238C83.6181 8.70686 84.0401 10.5217 84.6027 12.4762C85.3059 14.9891 85.8684 15.4079 88.5408 15.4079C89.9472 15.4079 91.4943 15.2683 92.9009 15.2683C93.0414 15.2683 93.4634 15.5475 94.1667 15.8268Z" fill="white" fill-opacity="0.5"/>
<path d="M75.2778 6.14707C74.9964 6.35648 74.8559 6.56589 74.7152 6.63569C74.012 6.9149 73.3087 7.19411 72.6054 7.47332C71.5507 7.82233 70.9177 8.52037 70.7771 9.63721C70.6364 10.5446 70.4958 11.4521 70.2848 12.3595C70.2144 12.6388 70.0035 13.0575 69.7925 13.1273C69.3705 13.1972 69.3705 12.7085 69.3003 12.4293C69.019 11.5917 68.7377 10.6842 68.5268 9.84661C68.1751 8.65997 67.4015 8.03174 66.1358 8.03174C65.6434 8.03174 65.2215 7.96194 64.7292 7.89214C64.448 7.89214 64.3073 7.75253 64.1667 7.61293C64.3073 7.47332 64.3777 7.26391 64.5183 7.19411C65.2215 6.9149 65.9951 6.63569 66.6983 6.42628C67.4015 6.21688 67.8938 5.72825 68.0344 5.03022C68.3158 3.91339 68.5268 2.79654 68.808 1.7495C68.9487 1.40048 68.808 0.911865 69.3003 0.911865C69.7925 0.911865 69.7222 1.33068 69.7925 1.60989C70.0035 2.58713 70.2144 3.49457 70.4958 4.47181C70.8474 5.72825 71.1287 5.93767 72.4649 5.93767C73.1681 5.93767 73.9417 5.86785 74.6449 5.86785C74.7152 5.86785 74.9261 6.00747 75.2778 6.14707Z" fill="white" fill-opacity="0.5"/>
</g>
<defs>
<clipPath id="clip0_14_2139">
<rect width="93.3333" height="90" fill="white" transform="translate(0.833313 0.911865)"/>
</clipPath>
</defs>
</svg>
