<svg width="91" height="91" viewBox="0 0 91 91" fill="none" xmlns="http://www.w3.org/2000/svg">
<g clip-path="url(#clip0_14_2093)">
<path d="M20.3236 44.513C19.6642 44.513 19.129 43.9778 19.129 43.3184V38.9917C19.129 38.6166 19.3034 38.2654 19.6021 38.0408C20.8205 37.1186 21.5182 35.7329 21.5182 34.2397V30.6561C21.5182 28.0209 19.3751 25.8778 16.7399 25.8778C14.1047 25.8778 11.9617 28.0209 11.9617 30.6561V34.2397C11.9617 35.7329 12.6593 37.1186 13.8778 38.0408C14.1764 38.2654 14.3508 38.619 14.3508 38.9941V43.3208C14.3508 43.9801 13.8156 44.5153 13.1562 44.5153C12.4969 44.5153 11.9617 43.9778 11.9617 43.3184V39.5555C10.435 38.1914 9.57257 36.2848 9.57257 34.2397V30.6561C9.57257 26.7045 12.7883 23.4888 16.7399 23.4888C20.6915 23.4888 23.9072 26.7045 23.9072 30.6561V34.2397C23.9072 36.2848 23.0448 38.189 21.5182 39.5555V43.3184C21.5182 43.9778 20.983 44.513 20.3236 44.513Z" fill="white"/>
<path d="M17.9416 41.2877C17.3874 41.2877 16.8904 40.8982 16.7733 40.3344C16.6419 39.687 17.0577 39.0562 17.7051 38.9249C19.9126 38.4685 21.5182 36.4999 21.5182 34.2398C21.5182 33.5805 22.0532 33.0453 22.7127 33.0453C23.3721 33.0453 23.9072 33.5805 23.9072 34.2398C23.9072 37.6275 21.499 40.5805 18.1829 41.2614C18.1017 41.2782 18.0229 41.2877 17.9416 41.2877Z" fill="white"/>
<path d="M24.8008 46.3861C24.6431 46.3861 24.4831 46.355 24.3302 46.288L19.8529 44.3649C19.2461 44.1044 18.9665 43.4021 19.227 42.7952C19.485 42.186 20.1874 41.9112 20.7942 42.1692L25.2715 44.0925C25.8782 44.353 26.1578 45.0553 25.8974 45.6621C25.7039 46.1161 25.2619 46.3861 24.8008 46.3861Z" fill="white"/>
<path d="M9.57255 60.8473C9.40771 60.8473 9.23808 60.8138 9.07801 60.7398L4.50524 58.6613C3.22946 58.0783 2.40521 56.7978 2.40521 55.3978V52.0865C2.40521 48.7369 4.38817 45.7266 7.4558 44.4174L12.6807 42.1502C13.2924 41.8873 13.99 42.1645 14.2528 42.7689C14.5133 43.3734 14.2361 44.0782 13.6316 44.3409L8.40188 46.6106C6.20868 47.5495 4.79433 49.6974 4.79433 52.0865V55.3978C4.79433 55.8636 5.06908 56.2937 5.49433 56.4872L10.0671 58.5657C10.6668 58.8381 10.9319 59.5476 10.6596 60.1474C10.4589 60.5869 10.0241 60.8473 9.57255 60.8473Z" fill="white"/>
<path d="M21.3724 32.8302C18.9929 32.8302 16.7184 32.0107 14.7952 30.4602C14.2839 30.0469 14.2026 29.2967 14.6136 28.783C15.0317 28.2693 15.7843 28.1905 16.2932 28.6039C17.8269 29.839 19.6474 30.5056 21.5133 30.441C21.3987 27.9038 19.301 25.8778 16.7399 25.8778C14.1047 25.8778 11.9617 28.0209 11.9617 30.6561V31.5401C11.9617 32.1994 11.4265 32.7346 10.7672 32.7346C10.1077 32.7346 9.57257 32.2018 9.57257 31.5401V30.6561C9.57257 26.7045 12.7883 23.4888 16.7399 23.4888C20.6915 23.4888 23.9072 26.7045 23.9072 30.6561V31.4923C23.9072 32.08 23.4796 32.5794 22.9015 32.6724C22.3496 32.7609 21.8717 32.8302 21.3724 32.8302Z" fill="white"/>
<path d="M63.3276 44.513C62.6682 44.513 62.1331 43.9778 62.1331 43.3184V38.9917C62.1331 38.6166 62.3074 38.2654 62.6061 38.0408C63.8246 37.1186 64.5221 35.7329 64.5221 34.2397V30.6561C64.5221 28.0209 62.3791 25.8778 59.744 25.8778C57.1087 25.8778 54.9657 28.0209 54.9657 30.6561V34.2397C54.9657 35.7329 55.6633 37.1186 56.8818 38.0408C57.1804 38.2654 57.3548 38.619 57.3548 38.9941V43.3208C57.3548 43.9801 56.8197 44.5153 56.1602 44.5153C55.5009 44.5153 54.9657 43.9801 54.9657 43.3208V39.5579C53.4391 38.1937 52.5766 36.2873 52.5766 34.2421V30.6585C52.5766 26.7069 55.7923 23.4911 59.744 23.4911C63.6956 23.4911 66.9113 26.7069 66.9113 30.6585V34.2421C66.9113 36.2873 66.0488 38.1914 64.5221 39.5579V43.3208C64.5221 43.9778 63.987 44.513 63.3276 44.513Z" fill="white"/>
<path d="M60.9456 41.2877C60.3914 41.2877 59.8945 40.8982 59.7774 40.3344C59.6459 39.687 60.0617 39.0562 60.7091 38.9249C62.9166 38.4685 64.5221 36.4999 64.5221 34.2398C64.5221 33.5805 65.0574 33.0453 65.7167 33.0453C66.3761 33.0453 66.9113 33.5805 66.9113 34.2398C66.9113 37.6275 64.503 40.5805 61.187 41.2614C61.1057 41.2782 61.0269 41.2877 60.9456 41.2877Z" fill="white"/>
<path d="M52.0343 46.2355C51.5731 46.2355 51.1312 45.9655 50.9376 45.5116C50.6772 44.9071 50.9568 44.2023 51.5637 43.9419L55.6896 42.1692C56.2917 41.9136 56.9965 42.1859 57.2569 42.7951C57.5173 43.3996 57.2377 44.1044 56.6309 44.3648L52.5049 46.1375C52.352 46.2044 52.1943 46.2355 52.0343 46.2355Z" fill="white"/>
<path d="M66.9113 60.8474C66.4597 60.8474 66.0249 60.5869 65.8242 60.1474C65.5519 59.5477 65.8171 58.8381 66.4168 58.5657L70.9895 56.4872C71.4148 56.2938 71.6895 55.8661 71.6895 55.3978V52.0865C71.6895 49.6974 70.2752 47.5495 68.0891 46.6155L62.8522 44.341C62.2477 44.0782 61.9706 43.3758 62.231 42.769C62.4938 42.1621 63.1866 41.8849 63.8031 42.1502L69.0329 44.4199C72.0957 45.7267 74.0786 48.737 74.0786 52.0865V55.3978C74.0786 56.7979 73.2543 58.0784 71.9786 58.6613L67.4058 60.7399C67.2457 60.8116 67.0761 60.8474 66.9113 60.8474Z" fill="white"/>
<path d="M41.3717 29.2608C37.9743 29.2608 34.4385 28.0638 32.489 26.3103C31.9968 25.8682 31.9561 25.1133 32.3981 24.6235C32.8402 24.1337 33.6023 24.0932 34.0849 24.5352C36.4406 26.6519 42.0836 27.758 45.3161 26.0236C45.8967 25.7106 46.6229 25.928 46.9335 26.5109C47.2465 27.0939 47.0267 27.8154 46.4461 28.1284C44.9721 28.9144 43.1921 29.2608 41.3717 29.2608Z" fill="white"/>
<path d="M38.2252 50.9636C34.2617 50.9636 32.1951 47.872 31.6552 46.2355C31.4473 45.6072 31.7889 44.9335 32.4149 44.7256C33.0408 44.5201 33.7121 44.8593 33.92 45.4805C33.9702 45.6238 35.0285 48.5721 38.2252 48.5721C41.4481 48.5721 42.5829 45.5331 42.6331 45.4041C42.8553 44.7853 43.5481 44.4628 44.1573 44.6825C44.7761 44.9024 45.1035 45.5785 44.8861 46.1997C44.8168 46.3955 43.1659 50.9636 38.2252 50.9636Z" fill="white"/>
<path d="M60.9385 60.52C60.2791 60.52 59.744 59.9848 59.744 59.3254V58.6588C59.744 55.1158 57.5101 51.9478 54.1868 50.7796L44.2219 47.2436C42.7884 46.7444 41.8256 45.3873 41.8256 43.8703V40.9316C41.8256 40.2722 42.3607 39.7371 43.0201 39.7371C43.6796 39.7371 44.2147 40.2722 44.2147 40.9316V43.8703C44.2147 44.372 44.5373 44.8211 45.015 44.9883L54.9824 48.5267C59.259 50.0294 62.133 54.1028 62.133 58.6588V59.3278C62.133 59.9873 61.5979 60.52 60.9385 60.52Z" fill="white"/>
<path d="M15.5454 60.52C14.886 60.52 14.3508 59.9848 14.3508 59.3254V58.6803C14.3508 57.935 14.4297 57.1872 14.5849 56.4489C15.3543 52.8103 18.0157 49.7761 21.5229 48.5243L31.4664 45.0361C31.9466 44.8689 32.2691 44.4174 32.2691 43.9157V40.9292C32.2691 40.2699 32.8043 39.7347 33.4637 39.7347C34.1231 39.7347 34.6583 40.2699 34.6583 40.9292V43.9157C34.6583 45.4304 33.6955 46.7874 32.2572 47.2914L22.3209 50.7772C19.5902 51.7495 17.5211 54.1124 16.9215 56.9435C16.7997 57.5169 16.7399 58.1022 16.7399 58.6803V59.3254C16.7399 59.9873 16.2047 60.52 15.5454 60.52Z" fill="white"/>
<path d="M38.2419 43.7962C37.5825 43.7962 37.0473 43.261 37.0473 42.6017C37.0473 41.9423 37.5825 41.4071 38.2419 41.4071C40.7218 41.4071 45.4092 39.1614 45.4092 30.6561V27.0724C45.4092 23.1209 42.1935 19.9051 38.2419 19.9051C34.2903 19.9051 31.0746 23.1209 31.0746 27.0724V30.6561C31.0746 34.7749 32.1759 37.9262 34.2568 39.7682C34.7515 40.2054 34.7992 40.9603 34.3596 41.4549C33.9176 41.9519 33.165 41.9924 32.6753 41.5576C30.8547 39.9474 28.6855 36.7507 28.6855 30.6561V27.0724C28.6855 21.802 32.9715 17.516 38.2419 17.516C43.5123 17.516 47.7984 21.802 47.7984 27.0724V30.6561C47.7984 41.0511 41.5484 43.7962 38.2419 43.7962Z" fill="white"/>
<path d="M56.4422 82.0222C56.0027 82.0222 55.5822 81.7785 55.3719 81.358C55.0804 80.7654 55.3218 80.0511 55.9142 79.7572L61.8225 76.8306C62.1546 76.6657 62.5512 76.6657 62.8809 76.8306L66.7417 78.7442L66.1134 74.4821C66.0608 74.1141 66.1802 73.739 66.4431 73.4739L69.4605 70.3895L65.2079 69.6656C64.8423 69.6035 64.5246 69.3717 64.3502 69.0421L62.3529 65.2243L60.3533 69.0421C60.1788 69.3717 59.8611 69.6035 59.4956 69.6656L55.2453 70.3895L58.2603 73.4739C58.7215 73.9469 58.7119 74.7019 58.2413 75.163C57.7682 75.6264 57.0109 75.6169 56.5522 75.1438L51.9436 70.4302C51.633 70.1123 51.5231 69.6489 51.6616 69.226C51.8002 68.8032 52.1585 68.4925 52.5982 68.4185L58.5136 67.4103L61.2969 62.0969C61.5048 61.7027 61.9133 61.4567 62.3553 61.4567C62.802 61.4567 63.2058 61.7051 63.4137 62.0969L66.1946 67.4103L72.1124 68.4185C72.552 68.4925 72.9104 68.8055 73.049 69.226C73.1876 69.6465 73.0776 70.1123 72.7671 70.4302L68.5694 74.7186L69.4438 80.6532C69.5059 81.0927 69.3219 81.5324 68.9636 81.7928C68.6052 82.0555 68.1274 82.0962 67.7309 81.8955L62.3553 79.2317L56.9774 81.8955C56.803 81.9839 56.6215 82.0222 56.4422 82.0222Z" fill="white"/>
<path d="M31.2563 88.5228C31.0078 88.5228 30.7617 88.4463 30.5538 88.2958C30.1954 88.0354 30.0092 87.5958 30.0736 87.1538L31.12 80.027L26.0838 74.8761C25.7733 74.5584 25.6633 74.0949 25.8019 73.6721C25.9405 73.2492 26.2988 72.9362 26.7384 72.8645L33.8436 71.6556L37.1836 65.2743C37.5993 64.4859 38.887 64.4859 39.3028 65.2743L42.6427 71.6556L49.748 72.8645C50.1875 72.9386 50.5459 73.2516 50.6845 73.6721C50.8231 74.0926 50.7131 74.5584 50.4026 74.8761L45.3639 80.027L46.4128 87.1538C46.4749 87.5934 46.2909 88.033 45.9326 88.2934C45.5742 88.5587 45.0964 88.5945 44.6998 88.3962L38.242 85.1971L31.7866 88.3962C31.6194 88.4798 31.4378 88.5228 31.2563 88.5228ZM29.3855 74.8356L33.2416 78.78C33.502 79.0476 33.6239 79.4203 33.5713 79.7882L32.7686 85.2425L37.7116 82.7937C38.0437 82.6264 38.4403 82.6264 38.77 82.7937L43.7106 85.2425L42.9079 79.7882C42.8554 79.4203 42.9749 79.0452 43.2376 78.78L47.0961 74.8356L41.656 73.9086C41.2905 73.8465 40.9728 73.6147 40.7983 73.285L38.242 68.3992L35.6856 73.285C35.5113 73.6147 35.1934 73.8465 34.8279 73.9086L29.3855 74.8356Z" fill="white"/>
<path d="M20.2353 82.0221C20.0561 82.0221 19.8769 81.9814 19.7048 81.8978L14.3294 79.2339L8.95148 81.9002C8.55728 82.0961 8.08185 82.0579 7.71871 81.795C7.36033 81.5347 7.17398 81.0951 7.23849 80.6555L8.1129 74.7209L3.91524 70.4325C3.60465 70.1147 3.49475 69.6512 3.63331 69.2283C3.77189 68.8055 4.13025 68.4925 4.56985 68.4208L10.4877 67.4126L13.271 62.0992C13.4789 61.705 13.8874 61.459 14.3294 61.459C14.7761 61.459 15.1799 61.7074 15.3877 62.0992L18.1686 67.4126L24.0842 68.4208C24.5237 68.4949 24.8821 68.8078 25.0206 69.2283C25.1592 69.6488 25.0493 70.1147 24.7387 70.4325L20.1302 75.1437C19.6739 75.6169 18.9165 75.6263 18.4411 75.1629C17.9704 74.7018 17.9609 73.9468 18.4219 73.4738L21.437 70.3894L17.1868 69.6655C16.8188 69.6034 16.5035 69.3717 16.3291 69.042L14.3317 65.2242L12.3321 69.042C12.1577 69.3717 11.8399 69.6034 11.4744 69.6655L7.22177 70.3894L10.2393 73.4738C10.4997 73.7414 10.6215 74.114 10.5689 74.482L9.94061 78.7442L13.8037 76.8305C14.1359 76.6656 14.5325 76.6656 14.8622 76.8305L20.768 79.7571C21.3605 80.0511 21.6018 80.7653 21.3103 81.3579C21.0954 81.7784 20.6725 82.0221 20.2353 82.0221Z" fill="white"/>
<path d="M90.9839 13.9023C90.4939 14.267 90.2489 14.6317 90.0038 14.7534C88.7789 15.2398 87.5539 15.7261 86.3289 16.2125C84.4914 16.8204 83.3889 18.0364 83.1439 19.9818C82.899 21.5625 82.6539 23.1432 82.2865 24.7239C82.164 25.2102 81.7964 25.9398 81.429 26.0614C80.694 26.183 80.694 25.3319 80.5714 24.8455C80.0815 23.3864 79.5914 21.8057 79.224 20.3465C78.6115 18.2795 77.264 17.1852 75.059 17.1852C74.2015 17.1852 73.4665 17.0636 72.6091 16.942C72.119 16.942 71.8741 16.6988 71.629 16.4556C71.8741 16.2124 71.9965 15.8477 72.2415 15.7261C73.4665 15.2398 74.814 14.7534 76.039 14.3885C77.264 14.0238 78.1215 13.1727 78.3664 11.9567C78.8565 10.0113 79.224 8.06581 79.7139 6.24194C79.959 5.63398 79.7139 4.78284 80.5714 4.78284C81.429 4.78284 81.3064 5.51239 81.429 5.99876C81.7964 7.70104 82.164 9.28173 82.6539 10.984C83.2664 13.1727 83.7564 13.5374 86.0839 13.5374C87.3089 13.5374 88.6564 13.4159 89.8814 13.4159C90.0038 13.4159 90.3714 13.6591 90.9839 13.9023Z" fill="white" fill-opacity="0.5"/>
<path d="M74.5322 5.47156C74.2872 5.65395 74.1648 5.83634 74.0423 5.89713C73.4298 6.14031 72.8172 6.3835 72.2047 6.62668C71.2861 6.93066 70.7347 7.53862 70.6123 8.51136C70.4898 9.3017 70.3673 10.092 70.1835 10.8824C70.1222 11.1256 69.9386 11.4903 69.7548 11.5511C69.3872 11.612 69.3872 11.1864 69.3261 10.9432C69.0811 10.2136 68.836 9.42329 68.6523 8.69374C68.3461 7.66021 67.6723 7.11305 66.5699 7.11305C66.1411 7.11305 65.7736 7.05226 65.3448 6.99146C65.0999 6.99146 64.9773 6.86986 64.8548 6.74828C64.9773 6.62668 65.0386 6.44429 65.1611 6.3835C65.7736 6.14031 66.4473 5.89713 67.0598 5.71474C67.6723 5.53236 68.101 5.10678 68.2235 4.49882C68.4686 3.52609 68.6523 2.55336 68.8973 1.64142C69.0198 1.33744 68.8973 0.911865 69.3261 0.911865C69.7548 0.911865 69.6935 1.27664 69.7548 1.51982C69.9386 2.37097 70.1222 3.16131 70.3673 4.01246C70.6736 5.10678 70.9185 5.28918 72.0823 5.28918C72.6948 5.28918 73.3685 5.22837 73.981 5.22837C74.0423 5.22837 74.226 5.34997 74.5322 5.47156Z" fill="white" fill-opacity="0.5"/>
</g>
<defs>
<clipPath id="clip0_14_2093">
<rect width="90.9677" height="90" fill="white" transform="translate(0.0161133 0.911865)"/>
</clipPath>
</defs>
</svg>
