<svg width="97" height="91" viewBox="0 0 97 91" fill="none" xmlns="http://www.w3.org/2000/svg">
<g clip-path="url(#clip0_14_2116)">
<path d="M79.2555 36.4968L61.3546 23.3986C61.0597 23.1814 60.6832 23.107 60.3277 23.1956L38.8234 28.6501C38.1651 28.8179 37.7675 29.4874 37.9352 30.1456C38.0055 30.4215 38.1695 30.6646 38.3991 30.8331L44.0932 34.9901L42.8634 41.2255C42.193 44.7059 47.7828 50.2159 55.3157 51.6793C56.637 51.9344 57.9795 52.0621 59.3251 52.0607C61.388 52.0735 63.4395 51.7538 65.4007 51.1136C68.4139 50.1114 70.4246 48.4386 70.7752 46.6492L72.0052 40.4322L78.8371 38.7043C79.4953 38.5365 79.8929 37.867 79.7251 37.2087C79.6549 36.9329 79.4908 36.6898 79.2614 36.5213L79.2555 36.4968ZM68.3772 46.1759C68.2357 46.8954 66.9014 48.0207 64.6321 48.7771C61.7669 49.6739 58.7225 49.839 55.7771 49.2567C48.8591 47.9099 44.9973 43.2303 45.3232 41.6931L46.3133 36.5953L56.2999 43.9253C56.5102 44.0803 56.7642 44.1642 57.0255 44.1651C57.1296 44.1658 57.2331 44.1513 57.3329 44.1222L69.3611 41.0782L68.3772 46.1759ZM57.3084 41.6007L41.9657 30.3842L60.3707 25.723L75.6949 36.9333L57.3084 41.6007Z" fill="white"/>
<path d="M31.1182 52.2944C30.7418 52.5116 30.508 52.9114 30.5031 53.346V75.2869C30.508 75.7214 30.7418 76.1211 31.1182 76.3385C31.303 76.4529 31.5157 76.5144 31.7331 76.5168C31.9318 76.5186 32.1281 76.4722 32.3049 76.3815L53.2742 65.4048C53.8754 65.0885 54.1063 64.3448 53.7901 63.7438C53.6742 63.5237 53.4943 63.3439 53.2742 63.228L32.3234 52.2515C31.9418 52.0543 31.4849 52.0705 31.1182 52.2944ZM32.9631 55.3691L50.052 64.3164L32.9816 73.2575L32.9631 55.3691Z" fill="white"/>
<path d="M76.0701 83.3797H69.7548C69.8642 83.0356 69.9201 82.6768 69.9208 82.3158V53.8627C69.9208 53.1835 69.3701 52.6327 68.6908 52.6327C68.0116 52.6327 67.461 53.1835 67.461 53.8627V82.3157C67.4508 82.9134 66.9581 83.3897 66.3604 83.3795C66.3602 83.3795 66.3606 83.3795 66.3604 83.3795H11.9876C11.39 83.3898 10.8971 82.9137 10.8868 82.3161C10.8868 82.3158 10.8868 82.3162 10.8868 82.3161V45.0874C10.897 44.4898 11.3897 44.0135 11.9873 44.0237H39.1739C39.8531 44.0237 40.4038 43.473 40.4038 42.7937C40.4038 42.1145 39.8531 41.5637 39.1739 41.5637H11.9876C10.0328 41.557 8.44062 43.1326 8.42712 45.0873V82.3155C8.42785 82.6767 8.48377 83.0353 8.59311 83.3794H2.27787C1.59863 83.3794 1.04794 83.9301 1.04794 84.6093V84.9167C1.04794 87.684 3.22485 90.7587 6.14572 90.7587H72.2021C75.1231 90.7587 77.3 87.684 77.3 84.9167V84.6093C77.3 83.9304 76.7493 83.3797 76.0701 83.3797ZM72.2021 88.2991H6.14572C5.08193 88.2991 3.99964 87.1677 3.63682 85.8394H74.7111C74.3483 87.1677 73.266 88.2991 72.2021 88.2991Z" fill="white"/>
<path d="M96.0281 14.4861C95.5161 14.8672 95.2601 15.2483 95.004 15.3755C93.724 15.8837 92.444 16.3918 91.164 16.9001C89.2438 17.5353 88.0918 18.806 87.8358 20.8389C87.5798 22.4906 87.3238 24.1424 86.9398 25.7941C86.8118 26.3023 86.4277 27.0646 86.0438 27.1917C85.2757 27.3188 85.2757 26.4294 85.1477 25.9211C84.6357 24.3965 84.1236 22.7447 83.7397 21.22C83.0996 19.0601 81.6916 17.9166 79.3875 17.9166C78.4914 17.9166 77.7234 17.7895 76.8275 17.6625C76.3154 17.6625 76.0594 17.4083 75.8034 17.1542C76.0594 16.9001 76.1873 16.519 76.4434 16.3918C77.7234 15.8837 79.1315 15.3755 80.4116 14.9942C81.6916 14.6131 82.5877 13.7237 82.8436 12.4531C83.3557 10.4202 83.7397 8.38731 84.2516 6.48147C84.5077 5.84618 84.2516 4.95679 85.1477 4.95679C86.0438 4.95679 85.9157 5.71913 86.0438 6.22735C86.4277 8.00615 86.8118 9.65788 87.3238 11.4367C87.9638 13.7237 88.4758 14.1048 90.9079 14.1048C92.1879 14.1048 93.596 13.9778 94.8761 13.9778C95.004 13.9778 95.3881 14.2319 96.0281 14.4861Z" fill="white" fill-opacity="0.5"/>
<path d="M78.8371 5.67649C78.581 5.86707 78.4531 6.05766 78.3251 6.12119C77.6851 6.3753 77.045 6.62941 76.405 6.88353C75.445 7.20117 74.8689 7.83645 74.741 8.85291C74.6129 9.67877 74.4849 10.5046 74.2929 11.3305C74.2289 11.5847 74.0369 11.9658 73.8449 12.0293C73.4608 12.0929 73.4608 11.6482 73.3969 11.394C73.1409 10.6317 72.8848 9.80583 72.6929 9.04349C72.3729 7.96351 71.6688 7.39175 70.5168 7.39175C70.0688 7.39175 69.6848 7.32823 69.2367 7.2647C68.9808 7.2647 68.8527 7.13764 68.7247 7.01059C68.8527 6.88353 68.9167 6.69294 69.0448 6.62941C69.6848 6.3753 70.3888 6.12119 71.0288 5.9306C71.6688 5.74002 72.1168 5.29532 72.2448 4.66003C72.5009 3.64359 72.6929 2.62713 72.9489 1.6742C73.0769 1.35656 72.9489 0.911865 73.3969 0.911865C73.8449 0.911865 73.7809 1.29304 73.8449 1.54715C74.0369 2.43655 74.2289 3.26241 74.4849 4.15181C74.805 5.29532 75.0609 5.48591 76.277 5.48591C76.917 5.48591 77.6211 5.42237 78.2611 5.42237C78.3251 5.42237 78.517 5.54943 78.8371 5.67649Z" fill="white" fill-opacity="0.5"/>
</g>
<defs>
<clipPath id="clip0_14_2116">
<rect width="95.0562" height="90" fill="white" transform="translate(0.971909 0.911865)"/>
</clipPath>
</defs>
</svg>
