<svg width="95" height="91" viewBox="0 0 95 91" fill="none" xmlns="http://www.w3.org/2000/svg">
<g clip-path="url(#clip0_14_2125)">
<path d="M67.3667 23.5447H1.63333C1.00745 23.5447 0.5 24.0522 0.5 24.678V70.0114C0.5 70.6373 1.00745 71.1447 1.63333 71.1447H22.0979C22.1319 71.5221 22.1875 71.8938 22.2543 72.2622L16.038 79.6708C15.6354 80.15 15.6976 80.8649 16.1768 81.2675C16.3118 81.381 16.4716 81.4613 16.6432 81.5022L23.4863 83.1365L26.2845 89.5965C26.5332 90.1708 27.2005 90.4349 27.7748 90.1861C27.9366 90.1161 28.0797 90.0093 28.193 89.8742L34.3991 82.478C34.4331 82.478 34.466 82.478 34.5 82.478C34.534 82.478 34.5669 82.478 34.6009 82.478L40.807 89.8742C41.209 90.3539 41.9239 90.4168 42.4036 90.0147C42.5386 89.9015 42.6454 89.7583 42.7155 89.5965L45.5137 83.1365L52.3568 81.5022C52.9657 81.3572 53.3418 80.746 53.1967 80.1371C53.1558 79.9656 53.0755 79.8058 52.962 79.6708L46.7457 72.2622C46.8125 71.8938 46.8681 71.5221 46.9021 71.1447H67.3667C67.9926 71.1447 68.5 70.6373 68.5 70.0114V24.678C68.5 24.052 67.9926 23.5447 67.3667 23.5447ZM27.6354 87.0114L25.3404 81.7187C25.1986 81.3915 24.911 81.1501 24.5641 81.067L18.9541 79.7263L23.0227 74.8768C23.0443 74.9266 23.0726 74.972 23.0941 75.0218C23.2415 75.3618 23.4013 75.6848 23.5781 76.0056C23.6506 76.1393 23.7277 76.2708 23.8047 76.4011C23.9604 76.6602 24.125 76.9141 24.2989 77.1627C24.4201 77.3361 24.5471 77.5027 24.6774 77.6727C24.8293 77.8654 24.9857 78.0535 25.15 78.2394C25.3143 78.4252 25.5059 78.6304 25.6951 78.8185C25.8345 78.9579 25.9785 79.0928 26.1258 79.2254C26.2482 79.3387 26.3581 79.4577 26.4862 79.5654C26.6143 79.673 26.7344 79.7456 26.8568 79.8408C26.9123 79.8838 26.9599 79.9337 27.0166 79.9756C27.1186 80.0527 27.2263 80.1196 27.3305 80.1932C27.4937 80.3066 27.6547 80.429 27.8235 80.5332C28.1454 80.7395 28.4775 80.9276 28.8141 81.0999C28.9433 81.1656 29.0747 81.2257 29.2062 81.2869C29.5084 81.429 29.8125 81.5582 30.1185 81.6745C30.2069 81.7074 30.2942 81.7448 30.3826 81.7754C30.8119 81.9262 31.2493 82.053 31.6927 82.155L31.7052 82.1584L27.6354 87.0114ZM36.6284 79.9711C36.1086 80.0809 35.5812 80.1503 35.0508 80.1785H35.0361C34.857 80.1876 34.6779 80.2 34.4977 80.2C34.3175 80.2 34.1385 80.1876 33.9594 80.1785H33.9447C33.4154 80.1502 32.8891 80.0812 32.3705 79.9722L32.2753 79.953C32.0735 79.9088 31.8741 79.8544 31.6769 79.7977C31.5941 79.7739 31.5103 79.7524 31.4287 79.7263C31.287 79.6821 31.1476 79.63 31.0082 79.5801C30.8688 79.5302 30.7362 79.4815 30.6025 79.426C30.5197 79.3908 30.4381 79.3534 30.3565 79.3126C30.1707 79.2288 29.9859 79.1438 29.8057 79.0497L29.7151 78.9998C29.2479 78.7499 28.8008 78.4642 28.3777 78.1453C28.142 77.9696 27.9244 77.7758 27.7102 77.5843C27.4569 77.3583 27.2151 77.1196 26.986 76.8692C26.8953 76.7717 26.7979 76.6788 26.7117 76.5779C26.3953 76.2056 26.1065 75.8105 25.8481 75.3958C25.8096 75.3346 25.7767 75.27 25.7348 75.2066C25.4938 74.804 25.2817 74.3846 25.1001 73.952C25.0843 73.9134 25.0661 73.8749 25.0514 73.8386C24.8507 73.3428 24.6892 72.8321 24.5686 72.3109C24.5686 72.2905 24.5527 72.2746 24.5471 72.2542C24.3825 71.518 24.2996 70.7657 24.3 70.0114C24.2966 64.378 28.8605 59.8087 34.4938 59.8051C40.1271 59.8017 44.6965 64.3657 44.7 69.9989C44.7004 70.7619 44.6153 71.5225 44.4461 72.2666C44.4405 72.2858 44.4291 72.3028 44.4246 72.3221C44.3042 72.8427 44.1431 73.3531 43.9429 73.8487C43.9271 73.8884 43.9089 73.928 43.8919 73.962C43.7109 74.392 43.4995 74.8086 43.2595 75.2087C43.2221 75.2722 43.1881 75.339 43.1462 75.4025C42.8878 75.8166 42.5995 76.2113 42.2837 76.5834C42.1987 76.6832 42.1024 76.7738 42.0129 76.8713C41.7807 77.124 41.5359 77.365 41.2796 77.5932C41.0643 77.7848 40.8501 77.9786 40.6155 78.1531C40.3809 78.3276 40.1712 78.475 39.9423 78.6212L39.9287 78.6291C39.7235 78.7594 39.5139 78.8796 39.3008 78.9929C39.2589 79.0156 39.2181 79.0394 39.1761 79.0609C39.005 79.1504 38.8361 79.2309 38.6559 79.3091C38.5653 79.3499 38.4757 79.3918 38.3839 79.4292C38.257 79.4825 38.1278 79.529 37.9986 79.5754C37.8694 79.6219 37.7096 79.682 37.5623 79.7273C37.4841 79.7522 37.4047 79.7738 37.3254 79.7964C37.1248 79.8531 36.9231 79.9098 36.7191 79.9528L36.6284 79.9711ZM50.0459 79.7229L44.4359 81.0636C44.089 81.1467 43.8014 81.3881 43.6596 81.7153L41.3646 87.0114L37.2948 82.1618H37.305C37.7501 82.0601 38.1891 81.933 38.6197 81.781C38.7047 81.7516 38.7863 81.7164 38.8713 81.6858C39.1875 81.5657 39.4991 81.4342 39.8051 81.288C39.9298 81.2302 40.0545 81.1747 40.1769 81.1112C40.5169 80.9344 40.8569 80.7429 41.1833 80.5332C41.3408 80.4335 41.4915 80.3213 41.6445 80.2136C41.7579 80.1354 41.8712 80.064 41.9845 79.9813C42.0446 79.936 42.0979 79.8827 42.1568 79.8362C42.2701 79.7433 42.4016 79.6651 42.5172 79.5676C42.6328 79.4702 42.7507 79.341 42.8708 79.2344C43.0204 79.0984 43.1677 78.9613 43.3105 78.8196C43.4971 78.6331 43.6777 78.4411 43.8523 78.2439C44.0166 78.058 44.173 77.8699 44.326 77.6772C44.4563 77.5106 44.5833 77.3372 44.7045 77.1672C44.8791 76.9202 45.0445 76.6663 45.1975 76.4079C45.2769 76.2764 45.3539 76.1438 45.4242 76.009C45.6003 75.6894 45.7608 75.3625 45.9059 75.0286C45.9263 74.9708 45.9557 74.9244 45.9773 74.8734L50.0459 79.7229ZM66.2333 68.878H46.9089C46.2939 62.0242 40.2391 56.9666 33.3852 57.5817C27.3837 58.1203 22.6275 62.8765 22.0889 68.878H2.76667V25.8114H66.2333V68.878Z" fill="white"/>
<path d="M6.16667 28.0781C5.54079 28.0781 5.03334 28.5855 5.03334 29.2114V33.7447H7.30001V30.3447H10.7V28.0781H6.16667Z" fill="white"/>
<path d="M62.8333 28.0781H58.3V30.3447H61.7V33.7447H63.9667V29.2114C63.9667 28.5854 63.4592 28.0781 62.8333 28.0781Z" fill="white"/>
<path d="M61.7 60.9448V64.3448H58.3V66.6115H62.8333C63.4592 66.6115 63.9667 66.104 63.9667 65.4781V60.9448H61.7Z" fill="white"/>
<path d="M7.30001 64.3448V60.9448H5.03334V65.4781C5.03334 66.104 5.54079 66.6115 6.16667 66.6115H10.7V64.3448H7.30001Z" fill="white"/>
<path d="M48.1 36.0115H20.9V38.2781H48.1V36.0115Z" fill="white"/>
<path d="M54.9 42.8114H14.1V45.0781H54.9V42.8114Z" fill="white"/>
<path d="M34.5 62.0781C30.1185 62.0781 26.5667 65.6299 26.5667 70.0114C26.5716 74.3907 30.1207 77.9398 34.5 77.9447C38.8815 77.9447 42.4333 74.3929 42.4333 70.0114C42.4333 65.6299 38.8815 62.0781 34.5 62.0781ZM34.5 75.6781C31.3705 75.6781 28.8333 73.1409 28.8333 70.0114C28.837 66.8834 31.372 64.3484 34.5 64.3447C37.6296 64.3447 40.1667 66.8818 40.1667 70.0114C40.1667 73.1409 37.6296 75.6781 34.5 75.6781Z" fill="white"/>
<path d="M94.5 14.3353C93.9937 14.7122 93.7405 15.0891 93.4873 15.2148C92.2215 15.7174 90.9557 16.2199 89.6899 16.7225C87.7911 17.3507 86.6519 18.6072 86.3987 20.6175C86.1456 22.2509 85.8924 23.8843 85.5127 25.5177C85.3861 26.0202 85.0063 26.7741 84.6266 26.8998C83.8671 27.0254 83.8671 26.1459 83.7405 25.6433C83.2342 24.1356 82.7278 22.5022 82.3481 20.9944C81.7152 18.8585 80.3228 17.7277 78.0443 17.7277C77.1582 17.7277 76.3987 17.602 75.5127 17.4764C75.0063 17.4764 74.7532 17.2251 74.5 16.9738C74.7532 16.7225 74.8797 16.3456 75.1329 16.2199C76.3987 15.7174 77.7911 15.2148 79.057 14.8378C80.3228 14.4609 81.2089 13.5814 81.462 12.3249C81.9684 10.3146 82.3481 8.30428 82.8544 6.41961C83.1076 5.79138 82.8544 4.91187 83.7405 4.91187C84.6266 4.91187 84.5 5.66574 84.6266 6.16832C85.0063 7.92735 85.3861 9.56073 85.8924 11.3198C86.5253 13.5814 87.0316 13.9583 89.4367 13.9583C90.7025 13.9583 92.0949 13.8327 93.3608 13.8327C93.4873 13.8327 93.8671 14.084 94.5 14.3353Z" fill="white" fill-opacity="0.5"/>
<path d="M77.5 5.62355C77.2468 5.81202 77.1203 6.00049 76.9937 6.06331C76.3608 6.3146 75.7278 6.56589 75.0949 6.81718C74.1456 7.13129 73.5759 7.75952 73.4494 8.76468C73.3228 9.58137 73.1962 10.3981 73.0063 11.2148C72.943 11.4661 72.7532 11.843 72.5633 11.9058C72.1835 11.9687 72.1835 11.5289 72.1203 11.2776C71.8671 10.5237 71.6139 9.70701 71.4241 8.95314C71.1076 7.88516 70.4114 7.31976 69.2722 7.31976C68.8291 7.31976 68.4494 7.25694 68.0063 7.19412C67.7532 7.19412 67.6266 7.06847 67.5 6.94283C67.6266 6.81718 67.6899 6.62871 67.8165 6.56589C68.4494 6.3146 69.1456 6.0633 69.7785 5.87484C70.4114 5.68638 70.8544 5.24662 70.981 4.61839C71.2342 3.61324 71.4241 2.60808 71.6772 1.66573C71.8038 1.35162 71.6772 0.911865 72.1203 0.911865C72.5633 0.911865 72.5 1.2888 72.5633 1.54009C72.7532 2.41961 72.943 3.2363 73.1962 4.11582C73.5127 5.24662 73.7658 5.43509 74.9684 5.43509C75.6013 5.43509 76.2975 5.37226 76.9304 5.37226C76.9937 5.37226 77.1835 5.49791 77.5 5.62355Z" fill="white" fill-opacity="0.5"/>
</g>
<defs>
<clipPath id="clip0_14_2125">
<rect width="94" height="90" fill="white" transform="translate(0.5 0.911865)"/>
</clipPath>
</defs>
</svg>
